<?xml version="1.0" standalone="no"?>
<!DOCTYPE svg PUBLIC "-//W3C//DTD SVG 20010904//EN"
 "http://www.w3.org/TR/2001/REC-SVG-20010904/DTD/svg10.dtd">
<svg version="1.0" xmlns="http://www.w3.org/2000/svg"
 width="1000.000000pt" height="1000.000000pt" viewBox="0 0 1000.000000 1000.000000"
 preserveAspectRatio="xMidYMid meet">
<metadata>
Created by potrace 1.11, written by Peter Selinger 2001-2013
</metadata>
<g transform="translate(0.000000,1000.000000) scale(0.100000,-0.100000)"
fill="#000000" stroke="none">
<path d="M4861 9645 c2 -32 -1 -41 -9 -27 -5 7 -25 13 -45 14 -20 1 -34 5 -30
11 3 5 -3 4 -14 -1 -21 -12 -41 -11 -62 2 -9 6 -9 2 3 -16 l16 -24 -48 2 c-26
1 -53 -4 -61 -10 -9 -7 -12 -7 -9 -1 4 6 3 17 -3 25 -7 13 -9 12 -9 -2 0 -9
-5 -20 -12 -24 -7 -4 -8 -3 -4 4 5 8 -1 12 -14 12 -14 0 -19 4 -14 13 5 8 2 8
-9 -2 -13 -10 -20 -11 -31 -2 -10 8 -16 9 -21 1 -3 -6 -11 -7 -17 -4 -6 4 -8
2 -4 -4 3 -6 15 -9 26 -7 21 4 36 -10 21 -19 -5 -4 -12 -2 -16 4 -4 6 -12 7
-18 3 -7 -4 -21 -8 -32 -8 -11 0 -25 -4 -30 -7 -6 -3 -27 -5 -48 -3 -22 2 -35
0 -32 -5 3 -6 -1 -7 -10 -3 -14 5 -14 8 -3 15 9 7 8 8 -5 4 -10 -3 -21 -6 -23
-6 -3 0 -2 -4 1 -10 4 -6 -1 -7 -11 -3 -11 4 -15 2 -11 -4 4 -7 -4 -10 -23 -8
-17 1 -33 -1 -36 -6 -3 -5 -11 -9 -17 -9 -8 0 -8 3 -2 8 14 10 17 32 5 32 -5
0 -10 -5 -10 -11 0 -5 -4 -8 -9 -4 -5 3 -13 0 -17 -6 -5 -8 -3 -9 6 -4 9 6 11
4 5 -5 -6 -10 -11 -9 -23 6 -13 18 -14 18 -7 -5 6 -20 5 -23 -11 -17 -9 4 -21
2 -24 -4 -5 -8 -9 -6 -13 5 -4 9 -3 13 3 10 6 -3 7 1 4 10 -8 19 -14 14 -18
-12 -2 -10 -8 -19 -14 -19 -7 -1 -13 -2 -14 -3 -11 -9 -48 -9 -48 -1 0 6 -5
10 -11 10 -6 0 -8 -8 -5 -17 5 -16 5 -16 -6 -3 -15 18 -58 24 -58 8 0 -7 -5
-7 -14 1 -10 9 -16 8 -26 -4 -7 -9 -10 -18 -6 -22 3 -3 6 -2 6 4 0 6 13 9 30
8 16 -1 28 1 25 5 -2 3 2 7 10 7 8 0 15 -4 15 -9 0 -7 -16 -11 -23 -5 -2 1
-10 -3 -18 -9 -8 -5 -24 -9 -36 -8 -13 0 -23 -4 -23 -10 0 -6 -4 -5 -9 2 -7
11 -9 11 -14 -1 -3 -9 -14 -14 -24 -12 -10 1 -24 -3 -32 -9 -11 -8 -13 -8 -7
2 4 7 2 12 -4 12 -6 0 -9 4 -6 9 4 5 0 8 -6 6 -38 -9 -58 -18 -58 -26 0 -13
23 -6 36 10 8 10 13 11 18 3 4 -7 1 -12 -6 -12 -9 0 -9 -3 2 -10 11 -8 9 -9
-12 -6 -15 3 -29 -1 -32 -7 -3 -8 -5 -7 -5 2 -1 11 -5 10 -16 -5 -11 -13 -13
-14 -9 -3 3 9 -1 19 -9 22 -10 4 -13 0 -10 -13 3 -10 -1 -21 -8 -25 -7 -5 -10
-4 -6 1 3 6 -3 16 -14 22 -19 12 -19 11 -9 -8 13 -25 2 -26 -17 -2 -8 9 -12
11 -8 4 5 -9 0 -11 -19 -8 -16 3 -25 0 -23 -7 1 -7 -6 -11 -15 -9 -9 1 -20 -3
-24 -9 -4 -7 -3 -9 3 -6 5 3 10 0 10 -8 0 -8 -3 -13 -5 -10 -3 3 -10 0 -17 -5
-8 -7 -12 -5 -12 5 0 8 4 12 9 9 4 -3 5 2 1 11 -4 12 -8 13 -13 4 -5 -6 -15
-9 -25 -6 -9 4 -14 3 -10 -3 3 -6 1 -10 -4 -10 -6 0 -11 -9 -11 -19 0 -34 -63
-38 -87 -5 -11 15 -12 14 -10 -4 0 -11 4 -19 8 -16 4 2 11 -1 15 -7 4 -8 3 -9
-4 -5 -7 4 -12 1 -12 -6 -1 -7 -6 -3 -13 9 -12 22 -13 22 -25 3 -10 -17 -10
-20 5 -20 21 0 13 -9 -13 -13 -10 -1 -26 -7 -34 -12 -13 -8 -13 -7 -1 8 7 9
18 14 24 10 6 -3 7 -1 3 5 -5 9 -15 8 -37 -3 -16 -9 -29 -18 -29 -21 0 -3 5
-2 10 1 6 3 10 4 10 1 0 -3 -18 -15 -40 -26 -31 -16 -38 -17 -34 -5 4 8 11 12
17 8 6 -3 7 -1 3 5 -5 8 -2 10 8 6 9 -3 16 -1 16 4 0 19 -17 22 -30 7 -7 -8
-16 -12 -21 -9 -5 3 -9 2 -8 -3 3 -20 -2 -27 -12 -13 -8 12 -9 10 -7 -10 3
-21 -1 -25 -20 -23 -15 2 -21 -1 -16 -9 4 -6 3 -8 -4 -4 -6 3 -13 2 -17 -3 -3
-6 -12 -8 -20 -5 -8 4 -12 10 -9 15 3 5 1 9 -4 9 -6 0 -13 -7 -16 -16 -3 -8
-10 -12 -16 -9 -5 3 -10 -1 -10 -9 0 -10 6 -13 15 -10 8 4 15 10 15 16 0 5 5
6 11 2 12 -7 -10 -24 -38 -28 -8 -1 -19 -9 -25 -17 -8 -11 -9 -11 -5 3 3 9 -1
19 -9 22 -8 3 -14 1 -14 -4 0 -6 -6 -9 -12 -8 -8 2 -12 -6 -11 -19 2 -13 -2
-23 -8 -23 -5 0 -8 4 -5 9 3 5 -3 11 -14 14 -16 4 -18 2 -10 -13 7 -13 7 -21
0 -25 -10 -6 -14 1 -11 18 1 5 -3 5 -9 2 -6 -4 -9 -13 -6 -20 6 -18 -23 -13
-35 6 -12 19 -11 2 1 -21 8 -15 7 -17 -12 -12 -14 3 -19 1 -14 -6 4 -7 2 -12
-3 -12 -14 0 -14 13 1 28 9 9 9 12 0 12 -7 0 -12 -5 -12 -11 0 -5 -4 -8 -9 -5
-5 3 -12 -1 -15 -10 -3 -8 -2 -13 3 -9 11 6 8 -22 -4 -32 -4 -4 -5 -2 -1 5 6
11 -5 17 -26 13 -5 0 -8 5 -8 11 0 9 -3 8 -9 -2 -13 -19 -3 -34 13 -21 9 8 13
7 13 -4 0 -8 -4 -12 -8 -9 -4 2 -11 -1 -15 -7 -5 -9 -11 -6 -22 7 -14 18 -14
18 -9 -4 4 -19 3 -21 -9 -11 -7 6 -11 16 -7 22 3 6 1 7 -5 3 -9 -5 -9 -13 -2
-26 12 -23 13 -40 1 -21 -12 18 -48 22 -48 5 0 -15 18 -14 30 1 5 6 7 4 4 -5
-2 -10 -16 -15 -45 -14 -36 1 -40 -1 -29 -14 9 -12 9 -16 -1 -19 -6 -3 -9 -10
-5 -16 5 -8 2 -8 -9 0 -8 7 -19 9 -23 5 -5 -4 -5 -1 -1 6 4 7 12 10 17 7 5 -4
9 -1 9 4 0 16 -15 13 -30 -4 -6 -8 -8 -20 -4 -26 4 -7 3 -9 -4 -5 -6 3 -16 -3
-22 -15 -8 -15 -15 -18 -22 -11 -8 8 -17 8 -30 1 -10 -5 -22 -8 -26 -5 -4 2
-8 -4 -8 -14 0 -16 3 -17 16 -6 32 27 43 30 31 7 -7 -11 -16 -20 -21 -18 -5 1
-16 -7 -24 -18 -12 -14 -14 -15 -10 -4 3 10 0 20 -7 25 -8 5 -10 3 -4 -6 6
-10 4 -12 -9 -7 -11 5 -15 3 -10 -5 5 -8 2 -9 -11 -4 -16 6 -16 4 -4 -10 13
-16 12 -16 -11 -4 -23 12 -24 12 -11 -3 12 -15 11 -17 -10 -17 -34 0 -56 -15
-34 -23 9 -4 14 -3 11 1 -3 5 1 9 8 9 8 0 12 -6 9 -14 -6 -16 -5 -16 -39 -2
-27 10 -28 10 -10 -9 11 -13 14 -22 7 -27 -6 -3 -14 1 -17 9 -5 14 -8 14 -21
1 -8 -9 -19 -12 -25 -9 -7 4 -7 0 0 -13 9 -15 6 -22 -10 -32 -11 -7 -18 -9
-15 -4 3 5 -3 14 -13 21 -13 7 -21 8 -25 2 -4 -6 -1 -9 5 -8 7 2 14 -7 16 -19
3 -16 0 -21 -11 -17 -8 4 -12 11 -8 17 4 6 1 7 -6 2 -7 -4 -11 -18 -8 -32 2
-13 2 -21 -1 -18 -3 2 -12 0 -19 -7 -13 -11 -26 -14 -70 -20 -7 -1 -11 -4 -8
-6 5 -6 -37 -38 -46 -35 -3 1 -6 -5 -6 -12 0 -11 4 -12 14 -4 8 7 13 8 13 1 0
-17 -29 -22 -38 -5 -8 14 -10 13 -15 -1 -4 -10 -3 -15 3 -11 6 4 9 -3 7 -17
-2 -13 -10 -23 -17 -23 -7 0 -16 -9 -21 -20 -4 -11 -8 -14 -8 -7 -1 6 -6 12
-12 12 -6 0 -9 -6 -6 -14 10 -25 -15 -38 -35 -19 -18 16 -19 16 -9 -10 7 -18
7 -28 -1 -33 -7 -4 -8 -3 -4 4 4 7 2 12 -4 12 -6 0 -9 4 -6 8 3 5 -1 9 -9 9
-8 0 -11 -5 -7 -11 12 -20 11 -37 -4 -43 -8 -3 -11 -10 -7 -16 3 -6 1 -7 -5
-3 -6 4 -9 13 -6 21 4 8 11 12 18 8 6 -4 5 1 -3 10 -7 9 -19 17 -25 16 -7 0
-7 -2 1 -5 7 -3 9 -12 6 -20 -3 -7 -10 -11 -15 -8 -6 4 -6 -1 1 -13 10 -20 6
-33 -11 -33 -4 0 -8 5 -8 11 0 5 5 7 12 3 7 -4 8 -3 4 4 -5 9 -13 9 -29 1 -28
-15 -37 -24 -15 -16 9 3 19 0 22 -8 3 -9 0 -12 -9 -9 -10 4 -13 0 -10 -16 3
-18 2 -20 -10 -10 -18 15 -20 24 -3 14 7 -5 8 -3 4 5 -10 15 -19 7 -23 -20 -2
-13 1 -18 9 -13 7 4 8 3 4 -5 -6 -9 -11 -9 -22 0 -11 9 -14 7 -14 -10 0 -12
-7 -24 -16 -28 -8 -3 -13 -12 -10 -20 3 -8 1 -11 -5 -8 -5 4 -7 16 -4 28 4 12
3 17 -2 11 -4 -6 -17 -16 -28 -23 -13 -8 -14 -11 -3 -7 9 2 19 -1 22 -9 3 -9
0 -12 -9 -9 -8 3 -26 -3 -40 -14 -15 -12 -21 -22 -13 -24 20 -7 1 -37 -21 -33
-18 3 -38 -21 -26 -33 3 -3 5 -1 5 5 0 5 7 10 16 10 15 0 15 -1 0 -12 -9 -7
-28 -11 -42 -9 -14 1 -23 0 -20 -3 2 -3 -12 -23 -32 -45 -20 -22 -36 -45 -34
-50 1 -5 -7 -12 -18 -15 -11 -3 -20 -10 -20 -15 0 -5 5 -6 10 -3 15 9 12 -3
-7 -25 -14 -15 -20 -17 -32 -7 -10 8 -9 3 4 -16 13 -21 15 -27 4 -25 -8 2 -13
-3 -11 -10 1 -8 -2 -11 -8 -7 -6 4 -8 16 -5 28 6 21 5 21 -6 3 -9 -14 -9 -24
0 -37 10 -17 8 -18 -14 -9 -19 7 -23 6 -18 -5 3 -8 10 -12 17 -8 6 4 4 -2 -4
-13 -22 -29 -24 -30 -17 -12 3 10 1 20 -6 24 -7 4 -9 4 -5 -1 4 -4 0 -14 -10
-22 -9 -8 -12 -12 -6 -9 7 3 15 -1 18 -10 4 -10 2 -13 -6 -8 -8 5 -9 2 -5 -10
4 -9 3 -14 -2 -11 -5 3 -12 -3 -16 -14 -3 -11 -13 -22 -21 -25 -9 -3 -12 -11
-8 -17 4 -7 3 -9 -4 -5 -6 3 -13 2 -17 -4 -3 -5 0 -10 7 -10 7 -1 3 -6 -10
-13 -12 -7 -19 -17 -15 -22 4 -4 2 -5 -6 0 -12 7 -11 10 4 22 11 7 15 13 10
13 -5 0 3 13 18 28 15 16 24 32 20 37 -5 4 -3 5 3 2 17 -10 26 21 14 41 -9 14
-10 14 -5 -4 4 -14 0 -24 -10 -28 -8 -3 -14 -11 -13 -18 2 -7 -3 -12 -10 -10
-8 1 -11 -2 -7 -8 3 -5 -1 -13 -9 -16 -9 -3 -16 -13 -16 -21 0 -8 -5 -11 -12
-7 -6 4 -8 3 -5 -3 4 -6 0 -16 -8 -23 -11 -9 -12 -17 -4 -31 8 -15 6 -19 -6
-19 -9 0 -13 5 -10 10 3 6 1 10 -4 10 -16 0 -14 -11 6 -34 18 -20 18 -20 -10
-3 -30 19 -37 12 -9 -10 16 -14 16 -14 0 -9 -20 6 -25 -9 -5 -18 6 -3 0 -4
-15 -2 -16 2 -25 -1 -21 -7 3 -5 0 -13 -7 -17 -8 -5 -7 -9 5 -13 9 -4 13 -3
10 2 -3 5 -1 12 4 15 5 4 8 -2 7 -11 -2 -11 -12 -18 -26 -18 -13 0 -25 -6 -27
-12 -3 -7 0 -13 7 -13 6 0 8 4 5 10 -3 6 1 7 10 3 13 -5 14 -7 3 -14 -7 -5
-13 -12 -13 -16 0 -4 -7 -18 -16 -31 -14 -19 -17 -20 -23 -7 -4 10 -2 14 6 9
7 -4 8 -3 4 4 -4 6 -14 8 -22 5 -9 -3 -12 -9 -7 -12 15 -9 24 -41 12 -41 -6 0
-8 -4 -5 -9 4 -5 -2 -7 -13 -4 -10 3 -22 -1 -26 -8 -5 -7 -4 -10 2 -6 17 11
23 -20 8 -33 -8 -7 -12 -16 -9 -21 3 -5 -3 -6 -12 -2 -11 4 -13 8 -6 11 7 2 9
9 6 14 -5 7 -2 8 7 3 12 -8 12 -6 0 8 -7 9 -16 17 -19 17 -3 0 -2 -3 1 -6 3
-4 2 -15 -3 -25 -7 -13 -5 -22 7 -34 15 -15 15 -16 -2 -13 -10 2 -20 -3 -23
-11 -3 -9 0 -11 9 -6 8 5 5 -1 -6 -12 -18 -18 -21 -18 -33 -4 -11 15 -12 14
-6 0 3 -10 0 -20 -5 -24 -6 -3 -9 -11 -6 -16 4 -5 -2 -9 -12 -10 -11 0 -13 -3
-5 -6 15 -6 44 16 36 28 -3 5 3 6 12 2 11 -4 13 -8 6 -11 -7 -2 -10 -8 -6 -13
3 -5 0 -8 -8 -7 -7 2 -12 -4 -12 -13 1 -11 -5 -15 -17 -12 -11 3 -19 0 -19 -6
0 -7 4 -10 9 -6 5 3 13 0 17 -6 4 -7 3 -9 -3 -6 -6 4 -16 0 -23 -8 -7 -8 -17
-12 -23 -8 -6 3 -7 1 -3 -6 4 -6 11 -9 16 -6 5 3 12 0 16 -6 4 -7 3 -9 -4 -5
-6 3 -14 1 -18 -5 -4 -8 -9 -7 -15 2 -6 9 -9 10 -9 2 0 -6 7 -19 16 -27 18
-19 4 -22 -15 -3 -10 8 -12 8 -7 0 3 -6 2 -14 -4 -18 -6 -4 -8 -11 -5 -16 6
-8 -8 -13 -27 -10 -5 0 -8 -3 -8 -8 0 -6 9 -9 20 -8 11 1 20 5 20 9 0 4 6 8
13 8 6 -1 1 -9 -12 -20 -12 -11 -27 -17 -32 -14 -5 3 -6 -2 -2 -11 5 -13 7
-14 14 -3 5 7 9 8 9 2 0 -18 -12 -24 -26 -13 -8 7 -14 6 -20 -2 -4 -7 -3 -9 3
-6 6 4 13 0 17 -8 3 -8 1 -15 -4 -15 -6 0 -10 -5 -10 -11 0 -5 6 -7 13 -3 9 6
8 3 -1 -8 -8 -9 -19 -15 -26 -12 -7 3 -19 -3 -27 -13 -13 -16 -12 -17 3 -5 30
24 35 -22 6 -55 -8 -10 -14 -26 -13 -36 2 -10 -1 -14 -8 -10 -6 4 -8 0 -4 -10
4 -10 -3 -23 -21 -37 -15 -11 -20 -19 -12 -17 8 2 12 2 7 0 -4 -3 -4 -9 -1
-15 4 -6 -1 -6 -13 1 -18 9 -20 7 -15 -14 2 -14 9 -25 14 -25 6 0 5 -7 -2 -15
-7 -8 -18 -15 -24 -15 -6 0 -4 4 4 10 8 5 12 11 10 14 -3 2 -14 -2 -24 -10
-11 -8 -14 -14 -7 -14 8 0 5 -10 -8 -29 -24 -33 -26 -41 -10 -41 5 0 8 4 4 9
-3 6 2 14 11 19 9 5 15 13 14 18 -1 5 3 10 9 12 14 5 14 -15 1 -23 -6 -4 -7
-11 -4 -17 4 -7 2 -8 -4 -4 -12 7 -16 -5 -13 -31 2 -14 -25 -18 -32 -5 -2 4
-2 2 -1 -5 2 -6 -2 -14 -9 -17 -9 -3 -8 -5 1 -5 10 -1 10 -6 2 -23 -11 -22
-10 -22 4 -4 9 10 13 23 10 27 -3 5 0 9 5 9 15 0 14 -12 -5 -38 -8 -12 -12
-22 -8 -22 3 0 1 -6 -5 -14 -6 -7 -9 -21 -5 -30 4 -12 0 -16 -15 -16 -23 0
-28 -14 -9 -26 7 -5 8 -3 3 6 -5 9 -4 11 4 6 8 -6 9 -12 2 -20 -6 -7 -8 -16
-4 -19 3 -4 1 -7 -6 -7 -7 0 -10 -4 -7 -8 6 -10 -30 -43 -37 -35 -3 3 -4 -3
-3 -12 1 -9 9 -21 17 -26 8 -5 9 -9 3 -9 -6 0 -11 -12 -10 -27 1 -14 -5 -27
-12 -29 -7 -1 -8 0 -2 3 5 2 10 9 10 14 0 6 -6 7 -12 3 -9 -5 -9 -2 1 9 9 11
10 17 2 17 -10 0 -15 -13 -12 -32 0 -5 -5 -8 -12 -8 -6 -1 -1 -7 13 -15 14 -8
20 -14 13 -15 -7 0 -10 -11 -7 -27 3 -20 2 -24 -5 -13 -5 8 -7 18 -5 22 3 4 1
8 -4 8 -6 0 -13 -7 -16 -16 -3 -8 -2 -12 4 -9 6 3 10 -1 10 -9 0 -10 -6 -13
-15 -10 -11 5 -14 0 -11 -17 2 -13 -2 -30 -8 -38 -8 -11 -8 -13 1 -7 7 4 13 4
14 -1 0 -4 2 -16 4 -26 2 -9 -1 -15 -6 -11 -5 3 -7 10 -4 15 3 5 -1 6 -10 2
-9 -3 -13 -9 -8 -12 14 -9 24 -41 13 -42 -6 -1 -14 -3 -20 -4 -5 -1 -13 -3
-17 -4 -5 -1 3 -11 16 -21 13 -11 19 -20 13 -20 -5 0 -8 -13 -7 -30 1 -16 -2
-28 -7 -27 -5 1 -16 -9 -25 -23 -12 -20 -12 -21 0 -7 20 24 26 21 20 -10 -2
-16 -5 -38 -5 -50 0 -16 -6 -23 -18 -23 -11 0 -22 -5 -26 -11 -4 -7 0 -9 13
-5 16 5 20 2 19 -16 -1 -13 -4 -27 -7 -33 -3 -5 -5 -27 -4 -47 1 -20 -2 -35
-7 -32 -4 3 -8 -2 -8 -10 0 -8 -6 -14 -12 -12 -7 1 -10 1 -5 -1 4 -3 7 -12 7
-21 0 -15 2 -15 10 -2 8 11 9 7 4 -15 -4 -16 -8 -40 -9 -52 0 -12 -4 -25 -8
-29 -12 -12 -8 -26 6 -18 9 5 9 3 -1 -7 -11 -12 -14 -12 -22 1 -6 9 -5 17 3
22 8 5 8 8 1 8 -18 0 -24 -12 -13 -31 7 -14 6 -19 -3 -19 -9 0 -9 -3 2 -10 12
-8 13 -12 2 -19 -11 -7 -11 -9 1 -14 11 -4 14 1 12 19 -1 13 1 24 6 24 4 0 7
-16 6 -35 -1 -19 -5 -35 -8 -35 -4 0 -6 -16 -4 -35 1 -26 -2 -35 -11 -31 -16
6 -28 -10 -15 -19 6 -3 8 -12 4 -20 -3 -8 0 -15 5 -15 6 0 9 9 7 20 -2 11 0
18 5 15 5 -3 6 -15 4 -28 -3 -12 -5 -35 -5 -52 0 -22 -3 -25 -9 -15 -8 13 -10
12 -10 -2 0 -9 -6 -19 -12 -22 -7 -3 -2 -3 12 1 23 5 24 5 10 -12 -9 -11 -10
-16 -2 -11 7 4 12 1 12 -9 0 -12 -4 -13 -18 -6 -14 7 -19 6 -19 -4 0 -8 3 -14
6 -13 21 2 29 -4 26 -19 -2 -10 -4 -22 -4 -26 -1 -5 -5 -6 -10 -2 -5 3 -13 1
-16 -5 -4 -6 -3 -10 2 -9 19 3 33 -2 33 -12 0 -6 -6 -9 -14 -6 -11 4 -13 0
-11 -15 3 -12 0 -27 -6 -34 -10 -13 7 -32 18 -20 4 3 1 6 -7 6 -10 0 -10 3 0
15 6 8 8 20 4 27 -4 8 -3 10 2 5 16 -15 11 -62 -9 -80 -11 -9 -16 -17 -11 -17
6 0 14 4 20 10 6 6 9 -3 10 -26 0 -27 -3 -34 -15 -29 -8 3 -12 3 -8 -1 4 -4 1
-14 -6 -22 -10 -13 -9 -14 8 -4 19 10 21 8 21 -33 1 -26 -3 -42 -9 -38 -5 3
-7 0 -5 -8 3 -8 10 -13 15 -12 5 1 9 -7 9 -17 0 -18 -1 -18 -20 -2 -19 16 -19
16 0 -13 12 -17 20 -43 19 -60 -2 -16 1 -38 6 -47 6 -11 5 -19 -3 -24 -6 -4
-8 -3 -5 3 4 6 0 16 -7 22 -10 9 -16 9 -21 1 -4 -6 -1 -9 6 -8 7 2 14 -7 15
-19 3 -42 4 -44 16 -37 9 5 9 2 -1 -9 -11 -14 -11 -17 0 -17 12 0 12 -2 0 -9
-9 -6 -9 -10 -2 -12 18 -6 22 -96 5 -113 -18 -18 -18 -23 1 -23 8 0 12 4 9 9
-3 4 0 8 5 8 14 0 14 -17 0 -26 -8 -5 -8 -8 0 -13 6 -4 13 -20 15 -37 3 -16 7
-39 10 -52 3 -13 1 -20 -5 -17 -5 4 -9 1 -9 -4 0 -6 5 -11 11 -11 6 0 9 -9 6
-20 -3 -10 0 -21 7 -23 8 -3 7 -9 -3 -18 -9 -9 -11 -9 -7 -1 10 18 1 15 -15
-5 -8 -9 -9 -14 -4 -11 17 10 39 -9 40 -34 1 -13 5 -30 10 -38 6 -9 4 -12 -6
-8 -10 4 -15 -1 -15 -13 0 -14 3 -16 15 -6 12 9 13 9 7 0 -4 -8 -2 -13 6 -14
7 0 4 -4 -7 -9 -17 -7 -17 -9 -2 -9 9 -1 16 -4 16 -8 -1 -5 0 -10 1 -13 8 -21
6 -40 -3 -40 -7 0 -4 -5 6 -11 14 -8 16 -14 6 -25 -9 -11 -8 -14 5 -14 9 0 16
-5 16 -11 0 -5 -5 -7 -11 -3 -7 4 -6 -3 2 -17 14 -27 19 -42 22 -79 1 -14 6
-28 11 -31 5 -4 9 -18 9 -33 0 -14 4 -26 9 -26 5 0 6 -5 3 -10 -4 -6 -11 -7
-17 -4 -7 4 -8 2 -4 -5 4 -6 12 -9 17 -6 8 6 11 -2 8 -21 0 -4 5 -11 13 -16 9
-6 6 -7 -9 -3 -14 4 -23 2 -23 -4 0 -6 3 -10 8 -10 24 4 34 -3 29 -20 -3 -11
0 -22 7 -24 16 -6 19 -59 4 -70 -9 -6 -8 -7 4 -3 12 3 22 -2 30 -17 6 -12 11
-23 10 -24 -1 -2 -2 -4 -1 -5 0 -2 3 -14 5 -28 2 -13 10 -28 17 -33 7 -5 3 -6
-11 -2 -13 4 -22 2 -22 -4 0 -6 3 -10 8 -10 4 1 14 1 22 0 13 -1 13 -2 0 -11
-12 -8 -12 -10 5 -10 l20 -1 -20 -15 c-20 -16 -19 -16 4 -9 16 5 21 4 17 -4
-4 -6 -3 -11 2 -11 12 0 4 -38 -11 -60 -9 -12 -9 -13 3 -3 18 17 30 16 30 -1
0 -7 7 -19 15 -26 8 -7 13 -16 10 -20 -3 -5 -1 -12 5 -15 6 -4 8 -16 4 -27 -4
-14 -2 -18 5 -14 6 4 11 4 10 -1 -3 -12 13 -47 25 -56 7 -5 3 -6 -9 -3 -17 5
-16 3 5 -14 21 -17 22 -19 5 -15 -16 5 -16 3 3 -6 12 -7 22 -16 22 -21 0 -5
-4 -6 -10 -3 -19 12 -10 -11 10 -25 11 -8 20 -23 20 -33 0 -10 4 -16 8 -13 11
7 12 -26 1 -40 -6 -7 -1 -10 14 -10 16 1 21 -4 19 -18 -2 -10 1 -15 6 -12 6 4
9 -5 7 -19 -1 -14 2 -28 8 -32 6 -4 7 -1 2 7 -6 9 -4 11 4 5 9 -5 10 -10 2
-18 -14 -14 -14 -27 0 -27 5 0 7 4 4 10 -3 5 -2 10 3 10 11 0 26 -30 23 -46
-1 -7 6 -14 14 -18 9 -3 13 -10 10 -16 -3 -6 0 -13 9 -16 9 -4 13 -16 11 -36
-4 -27 -3 -28 12 -16 9 7 14 8 10 2 -4 -7 1 -15 11 -19 16 -6 16 -7 -2 -21
-19 -14 -19 -14 2 -14 24 0 30 -24 10 -34 -7 -3 -3 -3 10 0 23 6 31 -11 10
-19 -7 -3 -3 -6 9 -6 17 -1 21 -5 16 -18 -5 -12 -3 -14 8 -8 12 8 12 6 1 -8
-12 -14 -11 -16 6 -12 15 3 19 -1 15 -16 -4 -13 0 -19 12 -19 14 0 15 -3 5
-15 -6 -8 -10 -20 -7 -27 4 -8 6 -7 6 5 2 29 21 19 21 -11 0 -29 16 -52 35
-52 5 0 2 5 -8 11 -9 5 -17 18 -16 27 0 13 2 14 6 2 4 -8 16 -22 27 -32 12 -9
17 -17 13 -18 -4 0 -3 -9 3 -20 6 -11 16 -17 22 -14 7 4 8 3 4 -4 -4 -7 -3
-12 3 -12 6 0 7 -7 4 -17 -4 -11 -3 -14 5 -9 8 5 10 1 5 -10 -5 -13 -3 -15 8
-9 12 8 12 6 0 -8 -8 -10 -11 -20 -7 -24 3 -3 6 -1 6 5 0 7 8 12 17 12 13 0
14 -3 5 -12 -7 -7 -12 -16 -12 -22 0 -6 5 -5 12 2 18 18 32 14 17 -5 -10 -11
-10 -14 -1 -9 7 4 12 2 12 -4 0 -6 5 -8 10 -5 6 4 10 3 9 -2 -3 -19 2 -34 10
-29 5 3 13 0 19 -7 10 -12 12 -17 12 -38 0 -5 5 -7 10 -4 6 4 9 1 8 -7 -2 -7
2 -12 9 -11 7 2 10 -4 7 -12 -4 -8 -10 -13 -14 -10 -5 3 -12 0 -16 -6 -4 -8
-3 -9 4 -5 7 4 12 1 12 -6 0 -8 3 -9 8 -3 11 15 35 18 26 3 -12 -19 -14 -39
-3 -32 5 3 9 0 9 -5 0 -6 8 -11 18 -11 11 0 33 -16 51 -35 17 -19 27 -35 22
-35 -6 0 -14 7 -19 16 -8 15 -10 15 -15 0 -4 -10 -3 -15 3 -11 6 4 18 -8 28
-26 9 -17 27 -41 39 -52 12 -11 20 -25 16 -30 -3 -6 -1 -7 6 -3 9 6 9 11 0 22
-8 10 -8 14 0 14 6 0 11 -5 11 -11 0 -5 5 -7 11 -3 7 4 7 -1 -1 -16 -6 -12 -9
-24 -6 -28 3 -3 6 0 6 6 0 6 10 9 21 7 29 -6 33 -11 14 -19 -11 -4 -14 -2 -9
6 4 7 3 8 -5 4 -15 -10 -3 -29 15 -22 12 5 18 -9 16 -35 -1 -5 6 -7 47 -11 13
-2 17 -8 13 -22 -4 -14 -1 -17 9 -12 8 4 6 1 -4 -7 -17 -14 -16 -15 18 -13
l36 3 -23 -24 c-13 -14 -18 -24 -13 -23 23 5 36 -1 29 -12 -4 -7 -4 -10 1 -6
4 4 15 3 24 -3 9 -6 3 0 -12 15 -15 14 -23 26 -18 26 6 0 14 0 19 0 4 0 7 -6
7 -12 1 -7 6 -12 12 -11 6 1 10 -10 9 -27 -2 -25 0 -27 13 -17 12 10 14 9 9
-4 -5 -13 -1 -15 20 -11 26 4 26 4 8 -11 -19 -14 -19 -15 5 -26 23 -11 23 -11
5 3 -11 9 -15 16 -9 16 7 0 15 -5 18 -10 4 -6 9 -8 13 -6 4 2 16 -2 27 -10 10
-8 13 -14 7 -14 -7 0 -12 -7 -12 -15 0 -8 -5 -15 -12 -15 -6 0 -8 -3 -5 -7 4
-3 15 1 26 11 17 16 20 16 35 1 9 -9 16 -21 16 -26 0 -6 5 -7 12 -3 7 5 8 3 3
-6 -6 -10 -10 -10 -20 3 -7 11 -16 13 -26 6 -11 -7 -11 -9 4 -9 10 0 16 -4 13
-9 -4 -5 4 -8 17 -7 12 2 32 -1 42 -6 18 -8 18 -8 -3 -4 -12 2 -22 0 -22 -5 0
-5 12 -9 26 -9 14 0 23 -4 19 -10 -3 -5 -13 -7 -23 -4 -14 5 -14 4 -3 -4 10
-7 21 -7 32 -1 28 15 35 10 11 -7 -25 -17 -21 -33 8 -31 10 1 17 5 14 9 -3 4
-12 5 -22 2 -14 -5 -14 -4 -2 4 9 7 19 7 26 2 6 -6 14 -6 19 -2 4 4 3 -3 -4
-15 -7 -15 -8 -24 -1 -28 6 -4 8 -10 5 -15 -3 -5 0 -12 6 -16 8 -4 9 -3 5 4
-3 6 2 16 13 22 13 7 22 7 26 0 4 -6 12 -7 18 -4 7 4 9 4 5 -1 -5 -5 1 -14 12
-22 11 -8 17 -20 14 -28 -4 -10 0 -15 11 -15 9 0 13 5 10 11 -4 6 2 5 14 -2
11 -8 17 -16 13 -19 -13 -9 -7 -35 8 -35 8 0 15 -5 15 -12 0 -6 3 -14 8 -17 4
-3 5 -3 2 0 -4 7 19 34 30 34 3 0 3 -6 -2 -12 -4 -7 -9 -22 -10 -33 -2 -17 -1
-16 11 4 10 18 15 20 19 10 4 -10 6 -11 6 -1 1 8 11 2 24 -12 13 -14 27 -22
31 -18 4 4 6 0 4 -8 -1 -8 2 -14 9 -13 8 2 11 -8 8 -26 -3 -25 0 -29 16 -26
10 2 25 7 32 11 8 5 7 2 -2 -9 -8 -10 -11 -20 -7 -24 3 -3 6 -1 6 5 0 7 5 12
11 12 5 0 7 -5 4 -10 -3 -6 1 -10 10 -10 9 0 13 4 10 10 -10 16 11 12 25 -5 7
-8 17 -12 24 -8 6 3 3 -3 -6 -14 -10 -11 -18 -24 -18 -29 0 -5 4 -3 8 4 5 7
18 14 31 17 12 2 19 0 16 -6 -6 -8 17 -14 40 -9 6 1 7 -2 3 -5 -4 -4 -3 -17 3
-29 9 -18 8 -19 -3 -5 -7 9 -20 14 -28 12 -13 -4 -13 -3 0 6 8 6 10 11 4 11
-6 0 -17 -7 -24 -16 -8 -8 -9 -14 -4 -13 23 4 45 -2 39 -11 -4 -6 -1 -9 7 -8
8 2 13 -6 12 -19 0 -12 3 -20 8 -17 4 3 8 12 8 20 0 8 7 14 16 14 9 0 12 5 8
12 -5 8 -1 7 10 -2 10 -8 25 -15 33 -16 9 -2 21 -8 27 -15 8 -9 6 -9 -10 -1
-21 11 -34 7 -34 -9 0 -5 6 -6 14 -3 8 3 17 0 21 -6 3 -6 1 -9 -6 -8 -6 2 -14
-4 -16 -12 -4 -12 -3 -12 5 -1 7 9 12 10 16 2 4 -6 11 -9 16 -6 5 3 14 -4 20
-16 7 -11 14 -18 17 -15 4 3 13 0 21 -7 13 -10 14 -9 8 2 -7 10 -3 12 15 6 24
-7 24 -7 4 9 -13 11 -15 15 -5 14 8 -2 23 -13 33 -26 16 -19 22 -21 35 -10 10
9 13 9 9 1 -4 -6 -3 -14 2 -18 5 -3 8 -14 6 -24 -2 -11 3 -22 10 -25 8 -3 12
0 9 7 -2 7 4 13 15 14 11 1 22 -5 25 -13 3 -7 12 -11 20 -8 8 3 17 1 20 -5 4
-6 14 -7 24 -4 13 4 13 2 -3 -11 -17 -14 -17 -15 -2 -10 12 4 17 2 15 -7 -2
-10 9 -14 43 -13 31 0 46 -4 46 -13 0 -10 -4 -10 -14 -1 -10 8 -17 8 -24 1 -8
-8 -7 -13 2 -18 8 -6 10 -4 4 5 -5 8 -3 11 6 8 8 -3 13 -14 11 -24 -3 -18 -3
-18 10 -2 13 17 32 19 55 5 6 -4 17 -6 25 -4 7 2 10 2 5 0 -4 -3 -4 -10 -1
-15 4 -7 2 -8 -4 -4 -7 4 -12 2 -12 -3 0 -16 10 -14 34 7 20 16 20 16 7 -1
-12 -15 -11 -17 3 -17 9 0 16 6 16 13 0 7 5 5 11 -5 5 -10 16 -15 24 -12 8 4
15 1 15 -6 0 -6 -4 -8 -10 -5 -5 3 -10 1 -10 -4 0 -6 -6 -11 -14 -11 -8 0 -18
-4 -21 -10 -10 -17 49 9 63 28 13 16 13 16 10 -2 -2 -10 3 -21 10 -23 8 -3 10
2 6 14 -5 17 -5 17 6 0 6 -9 15 -15 20 -12 5 3 11 1 15 -4 3 -6 -3 -8 -15 -6
-11 2 -22 0 -25 -6 -4 -5 10 -9 29 -9 19 0 38 5 42 11 10 16 25 -12 18 -33 -3
-10 -1 -18 5 -18 6 0 11 7 11 16 0 8 5 12 10 9 6 -3 10 -1 10 6 0 7 3 9 6 6 4
-4 -1 -18 -10 -32 -18 -28 -11 -35 9 -8 7 9 23 18 36 20 18 2 20 1 9 -6 -8 -5
-19 -7 -25 -3 -5 3 -4 -2 3 -11 8 -9 11 -20 8 -25 -3 -6 10 -9 29 -7 20 1 40
-4 46 -12 6 -7 17 -13 23 -13 6 0 3 5 -7 11 -18 10 -18 11 0 24 13 9 22 10 30
3 7 -6 13 -7 13 -2 0 11 20 -18 20 -29 0 -4 -10 1 -22 12 -11 11 -26 17 -32
14 -6 -4 -5 -8 4 -11 8 -3 21 -10 29 -15 19 -16 43 -18 34 -4 -3 7 -3 9 2 5 4
-4 14 0 22 10 13 15 13 15 4 -5 -14 -29 -14 -38 2 -26 18 15 47 12 47 -5 0 -9
3 -12 6 -9 10 10 44 -12 40 -26 -1 -6 -1 -9 1 -4 3 4 10 4 15 1 7 -4 8 -2 4 4
-4 7 -3 12 3 12 6 0 8 7 5 15 -4 8 -10 12 -15 9 -5 -3 -6 -11 -2 -17 4 -7 0
-6 -10 2 -9 7 -17 19 -16 25 0 6 3 6 6 -2 4 -9 8 -10 18 -2 10 9 16 7 24 -8 6
-11 7 -23 3 -27 -4 -4 4 -4 18 0 20 6 23 5 13 -6 -22 -22 -14 -31 9 -10 11 11
25 18 29 15 4 -2 13 4 19 13 10 17 10 16 8 -2 -2 -16 2 -19 20 -17 12 2 22 -2
22 -8 0 -6 5 -8 10 -5 6 3 10 1 10 -5 0 -7 7 -9 16 -6 10 4 13 2 8 -6 -5 -8
-2 -9 10 -5 10 4 15 3 11 -3 -3 -6 0 -10 8 -10 10 0 14 7 11 22 -3 16 -2 18 3
7 5 -9 16 -15 26 -13 9 1 15 -2 11 -7 -7 -12 3 -11 27 1 11 6 19 7 18 3 -3
-20 2 -27 12 -13 8 12 10 12 7 1 -2 -8 -15 -16 -29 -18 -16 -2 -20 0 -11 5 8
6 0 8 -22 8 -20 -1 -36 -5 -36 -10 0 -4 6 -6 14 -3 7 3 23 -1 35 -9 11 -8 21
-11 21 -6 0 15 34 10 54 -7 18 -16 18 -15 2 17 -10 19 -15 36 -13 39 3 2 8 -5
12 -16 7 -23 25 -27 41 -11 8 8 15 6 23 -4 7 -8 19 -12 27 -9 8 3 14 0 14 -5
0 -6 -9 -9 -20 -7 -19 4 -19 2 -4 -20 14 -22 44 -25 44 -5 0 13 31 5 41 -11 7
-11 9 -11 9 -1 0 7 4 11 10 7 5 -3 7 -12 3 -20 -3 -8 0 -15 7 -15 6 0 8 5 5
10 -9 14 9 12 24 -3 10 -10 12 -9 9 3 -2 8 4 15 12 16 37 3 41 5 35 14 -4 6 1
7 11 3 13 -5 15 -3 9 8 -8 12 -6 12 8 0 19 -15 14 -33 -7 -25 -7 3 -19 -3 -27
-13 -13 -17 -13 -17 5 -3 15 11 20 12 23 3 3 -7 9 -13 14 -13 6 0 8 4 5 9 -4
5 14 9 38 9 33 0 43 -3 40 -13 -3 -7 -13 -11 -24 -8 -25 7 -33 -12 -12 -28 16
-13 16 -13 2 5 -14 18 -13 19 8 14 15 -4 25 -2 29 8 3 8 9 14 14 14 6 0 5 -9
-1 -21 -7 -11 -9 -23 -6 -27 3 -3 6 0 6 6 0 6 11 23 25 38 19 20 25 23 25 10
0 -9 5 -16 11 -16 5 0 8 -4 5 -8 -2 -4 3 -8 13 -8 10 0 18 6 18 12 0 7 -6 10
-12 7 -7 -2 -15 4 -19 14 -4 9 -4 14 0 10 4 -4 13 -2 21 4 14 13 43 -4 43 -25
0 -6 -5 -3 -11 7 -5 9 -14 17 -20 17 -5 0 -4 -8 3 -19 6 -10 21 -18 34 -17 12
0 20 4 18 7 -2 4 2 12 9 18 10 8 14 7 14 -4 0 -8 -5 -12 -10 -8 -5 3 -4 -4 2
-15 6 -12 17 -24 24 -28 9 -5 9 -4 0 7 -21 22 -14 33 8 13 11 -10 20 -14 19
-9 -5 21 1 29 10 15 8 -12 11 -13 22 -2 11 11 11 13 -1 10 -7 -2 -15 7 -17 20
-2 12 1 22 6 22 6 0 9 -6 8 -12 -2 -9 8 -12 30 -12 17 1 32 -2 32 -7 0 -5 -3
-8 -7 -8 -20 3 -31 -2 -37 -17 -6 -15 -4 -15 10 -3 10 8 26 13 37 11 13 -3 17
0 12 10 -3 7 0 5 8 -4 15 -19 47 -24 47 -8 0 5 -7 7 -15 4 -10 -4 -15 0 -15
12 0 16 2 17 10 4 9 -14 14 -7 11 13 -1 5 3 6 9 2 19 -12 80 -13 80 -1 0 6 4
5 9 -4 12 -17 4 -33 -11 -24 -8 5 -9 1 -5 -10 4 -10 7 -20 7 -22 0 -2 4 -4 10
-4 5 0 7 7 4 15 -4 8 -1 15 4 15 6 0 13 -8 15 -17 3 -10 5 -5 4 11 -2 20 3 29
15 31 10 2 20 -1 24 -6 3 -5 10 -6 16 -3 6 4 5 10 -3 16 -11 8 -11 9 1 5 8 -2
14 -9 13 -15 -1 -5 10 -10 24 -9 25 0 26 0 8 13 -10 8 -14 14 -9 14 6 0 16 -6
23 -12 12 -11 13 -9 7 7 -6 20 -6 20 9 1 8 -11 15 -16 15 -12 0 5 6 4 13 0 14
-11 38 -11 54 -1 7 4 23 5 38 3 14 -3 25 0 25 5 0 5 5 9 11 9 8 0 8 -4 0 -14
-7 -9 -24 -13 -41 -11 -21 3 -33 -1 -39 -14 -8 -14 -6 -18 7 -18 9 0 23 5 31
11 18 14 82 16 100 2 11 -8 13 -8 7 2 -4 6 -2 12 3 12 6 0 11 5 11 11 0 8 -5
8 -15 -1 -12 -10 -15 -10 -15 1 0 10 -3 10 -12 1 -7 -7 -16 -12 -22 -12 -5 0
-1 6 9 14 11 8 25 12 32 9 7 -3 13 -1 13 4 0 5 7 10 15 10 8 0 12 -4 9 -9 -3
-4 -2 -18 1 -29 6 -17 9 -19 16 -8 12 20 11 37 -2 19 -9 -13 -10 -13 -6 0 2 8
10 14 16 12 6 -1 11 2 11 7 0 6 9 8 21 6 14 -3 19 0 16 9 -3 7 1 13 8 13 10 0
11 -5 4 -19 -5 -10 -13 -17 -17 -17 -19 3 -29 -2 -29 -17 0 -14 2 -14 14 2 8
11 16 18 18 17 3 -2 15 -3 28 -3 16 0 18 3 9 9 -11 7 -10 9 3 14 9 4 13 3 10
-3 -3 -6 -2 -10 4 -10 5 0 12 8 14 18 4 16 5 16 6 0 0 -10 -11 -25 -26 -33
-16 -9 -20 -14 -9 -11 13 5 17 2 13 -8 -6 -15 17 -16 30 -1 4 4 2 5 -4 1 -8
-4 -13 -1 -13 9 0 12 6 15 23 10 12 -3 17 -3 11 2 -15 11 -14 40 2 40 7 0 13
-3 12 -6 -2 -20 4 -29 22 -34 11 -3 18 -1 15 3 -3 5 -1 11 5 15 5 3 10 1 10
-5 0 -6 4 -8 10 -5 5 3 10 -4 11 -17 1 -23 1 -23 8 2 4 15 10 20 14 13 4 -6 4
-19 1 -30 -5 -17 -5 -17 6 0 9 15 9 22 -4 36 -16 17 -49 21 -62 8 -11 -10 -24
-8 -24 3 0 6 6 9 13 8 6 -2 11 3 9 10 -2 10 2 10 18 2 16 -9 22 -8 26 5 5 13
11 9 26 -15 10 -17 24 -30 31 -27 15 5 22 37 8 37 -6 0 -8 -7 -5 -15 4 -8 1
-15 -6 -15 -6 0 -8 5 -4 12 4 6 3 8 -3 5 -5 -3 -10 0 -10 8 0 8 4 12 9 9 4 -3
8 0 8 5 0 6 6 10 13 9 6 -2 11 2 10 7 -1 6 9 10 22 10 13 0 21 -3 18 -7 -2 -5
-11 -8 -19 -8 -8 0 -12 -5 -9 -10 4 -6 11 -7 17 -4 7 5 8 2 3 -6 -5 -9 -4 -11
3 -6 7 4 12 1 12 -8 0 -20 -5 -20 -24 0 -9 8 -16 11 -16 5 0 -6 9 -15 21 -21
17 -10 21 -8 26 9 3 12 10 21 15 21 5 0 6 -5 2 -12 -4 -7 -3 -8 5 -4 15 10 3
29 -15 22 -8 -3 -14 -1 -14 4 0 6 5 10 11 10 20 0 49 -21 49 -36 0 -8 -5 -12
-10 -9 -6 3 -13 -1 -16 -9 -3 -9 -10 -14 -14 -11 -5 3 -11 1 -14 -4 -8 -13 24
-7 32 6 4 5 15 9 24 7 10 -1 21 3 25 8 3 7 1 8 -5 4 -7 -4 -12 -2 -12 5 0 7
-8 21 -17 32 -22 25 -1 15 37 -17 17 -15 20 -16 11 -3 -8 9 -11 21 -7 24 4 4
12 1 17 -7 9 -13 10 -13 6 1 -4 12 1 17 18 17 17 0 22 -5 18 -16 -4 -10 -2
-13 6 -8 6 4 9 16 6 27 -5 14 -3 17 9 13 9 -3 13 -11 9 -18 -4 -6 1 -5 10 3
20 16 23 25 5 15 -7 -4 -4 2 6 14 21 25 36 31 16 7 -8 -9 -9 -15 -2 -15 6 0
14 5 17 10 4 6 11 7 17 4 8 -5 9 -1 5 12 -5 14 -2 12 13 -6 21 -27 26 -45 10
-35 -6 4 -7 -1 -3 -11 5 -15 7 -15 15 0 5 9 6 21 3 26 -3 6 -2 10 4 10 5 0 11
-6 14 -12 3 -7 4 -3 4 9 -1 18 -4 20 -22 11 -11 -6 -17 -7 -13 -3 4 5 2 15 -5
24 -11 14 -10 14 6 2 15 -12 20 -12 27 -2 6 10 10 8 15 -8 3 -12 10 -19 15
-16 5 3 11 1 15 -5 3 -5 0 -10 -8 -10 -8 0 -17 -7 -21 -15 -5 -13 -3 -13 18 0
12 8 27 12 31 8 5 -5 4 -1 -3 8 -12 16 -7 29 10 29 5 0 6 -4 3 -10 -3 -5 -1
-10 4 -10 13 0 14 10 2 28 -6 10 -10 10 -20 -2 -11 -13 -15 -13 -27 -1 -8 7
-14 17 -14 21 0 5 5 3 12 -4 7 -7 17 -8 29 -2 14 8 23 3 43 -21 14 -17 26 -26
26 -21 0 5 -7 15 -15 22 -14 12 -18 63 -3 54 4 -3 5 -10 2 -17 -2 -7 6 -22 18
-33 18 -15 20 -15 9 -1 -12 15 -11 17 3 17 9 0 16 5 16 10 0 6 7 10 17 10 14
0 14 -2 -2 -20 -10 -11 -14 -20 -9 -20 16 0 31 34 27 60 -2 17 0 21 6 11 5 -7
13 -11 19 -7 6 3 14 2 17 -4 4 -6 3 -10 -2 -9 -22 4 -30 -3 -28 -24 1 -16 9
-23 26 -24 22 -2 22 -1 3 5 -15 5 -19 12 -15 25 4 10 11 19 16 20 6 1 9 8 7
15 -2 10 3 12 18 7 11 -4 20 -3 19 2 -3 20 2 25 15 14 10 -8 16 -9 21 -1 3 5
1 10 -4 10 -6 0 -11 5 -11 12 0 9 3 9 12 0 18 -18 28 -15 21 6 -7 19 40 -35
51 -58 9 -21 0 20 -10 44 -5 13 -4 17 4 12 6 -3 15 2 21 11 6 11 11 13 11 5 0
-7 5 -10 10 -7 6 4 8 10 6 14 -3 4 1 8 8 8 8 0 13 -7 11 -16 -1 -9 -8 -15 -14
-13 -6 1 -11 -2 -11 -8 0 -13 6 -13 31 3 17 10 22 9 35 -7 8 -11 14 -15 14 -9
0 7 -5 15 -10 18 -6 4 -8 10 -5 15 3 5 0 12 -6 16 -8 4 -9 3 -5 -4 4 -7 2 -12
-3 -12 -6 0 -11 7 -11 15 0 21 16 19 34 -6 16 -23 40 -16 42 13 1 10 -2 15 -7
12 -5 -3 -9 -12 -9 -20 0 -8 -5 -12 -10 -9 -8 5 -8 11 -1 19 6 7 7 17 3 21 -4
5 -2 5 5 2 6 -4 14 -1 16 5 4 10 6 10 6 0 1 -7 5 -11 10 -7 5 3 13 1 16 -5 4
-6 3 -9 -2 -8 -9 3 -13 -5 -13 -24 0 -7 7 -3 15 9 9 12 14 27 13 34 -2 6 3 14
10 16 6 3 12 0 12 -7 0 -6 -5 -8 -12 -4 -7 4 -8 3 -4 -5 4 -6 12 -8 18 -5 7 5
9 2 6 -8 -4 -8 -2 -21 3 -29 8 -12 10 -12 8 1 -3 29 1 40 16 40 8 0 15 5 15
10 0 7 -8 7 -22 -1 -13 -6 -20 -8 -16 -4 4 5 2 15 -4 24 -7 9 -8 13 -3 8 4 -4
17 0 27 10 10 9 18 11 18 6 0 -6 -7 -14 -16 -17 -9 -4 -15 -9 -12 -12 11 -10
56 19 62 39 4 17 8 18 20 8 10 -8 16 -9 21 -1 8 13 35 13 35 0 0 -5 -8 -7 -17
-4 -15 5 -15 4 -3 -4 8 -6 17 -9 21 -6 4 2 9 -1 12 -8 2 -7 3 -1 1 15 -5 36 4
34 21 -5 l13 -33 -1 38 c-1 22 -4 32 -9 24 -5 -8 -8 -8 -8 -1 0 15 25 36 33
27 4 -3 9 2 13 11 3 9 10 13 15 10 5 -3 9 0 9 7 0 6 11 0 25 -15 14 -15 23
-31 20 -36 -3 -5 -1 -11 4 -15 10 -6 7 27 -4 45 -3 6 -2 10 4 10 5 0 11 -5 13
-12 5 -14 45 -21 53 -9 3 5 0 13 -6 17 -7 4 -9 3 -5 -4 4 -7 -1 -10 -14 -9
-10 1 -22 8 -25 15 -3 10 0 12 10 8 14 -5 14 -2 0 23 -14 27 -13 29 5 24 11
-3 23 -9 26 -14 3 -5 -3 -6 -13 -2 -15 6 -16 5 -3 -9 13 -14 16 -14 23 -1 5 8
3 21 -5 30 -7 10 -8 14 -1 10 6 -4 14 -2 16 3 3 6 4 5 3 -2 -1 -7 4 -20 12
-28 14 -13 14 -15 -1 -18 -20 -4 -22 -18 -5 -28 6 -4 8 -3 5 3 -4 6 0 14 8 17
13 5 14 10 4 27 -9 17 -8 24 6 38 10 9 15 11 12 6 -3 -6 3 -17 15 -24 11 -7
17 -8 13 -2 -4 7 3 10 17 8 14 -1 22 3 20 11 -1 6 7 12 17 12 11 0 23 5 26 10
4 6 11 8 16 5 5 -4 9 -1 9 4 0 11 -11 14 -27 9 -5 -2 -7 -6 -5 -11 4 -13 -24
-7 -44 9 -10 8 -14 13 -7 10 6 -4 14 0 16 6 3 8 6 6 6 -5 1 -10 6 -15 11 -12
7 4 7 12 0 25 -7 13 -7 21 0 25 6 4 10 3 9 -2 -5 -29 4 -35 17 -10 8 15 17 27
20 27 2 0 0 -9 -6 -19 -12 -24 -13 -34 -1 -26 5 3 16 -4 24 -15 13 -18 15 -19
21 -5 3 9 2 14 -2 12 -4 -3 -13 1 -19 8 -10 11 -9 17 3 30 14 14 19 14 37 2
18 -12 23 -10 50 17 17 19 27 24 23 14 -3 -11 2 -22 14 -28 12 -7 20 -7 20 -1
0 5 -7 11 -17 13 -11 2 -2 14 32 40 27 21 44 38 38 38 -5 0 -15 12 -21 27 -12
28 -12 28 4 5 9 -12 22 -22 29 -22 16 0 27 28 18 43 -4 7 2 5 12 -3 17 -14 18
-13 12 3 -4 10 -3 16 2 13 5 -3 12 1 15 9 7 18 26 16 43 -5 9 -10 12 -11 13
-2 0 6 6 11 13 10 6 -2 11 5 11 15 -1 10 3 16 10 14 6 -3 10 -9 9 -15 -2 -6 4
-9 12 -6 12 5 10 10 -8 25 -19 16 -20 18 -4 19 9 0 17 -6 17 -12 0 -7 5 -5 11
5 6 9 14 15 20 12 5 -4 9 -2 9 3 0 6 -7 13 -16 16 -10 4 -13 2 -8 -6 5 -7 3
-8 -6 -3 -9 5 -11 4 -6 -3 5 -8 2 -10 -8 -6 -13 5 -13 8 -1 20 7 8 21 11 30 7
15 -5 16 -3 6 15 -7 14 -8 23 -1 27 6 4 10 3 9 -2 -3 -20 2 -34 11 -28 5 3 6
13 3 22 -6 15 -5 16 9 3 9 -8 12 -17 7 -18 -5 -2 -6 -9 -3 -14 4 -7 2 -8 -4
-4 -7 4 -12 2 -12 -3 0 -17 18 -13 29 7 6 11 6 24 -1 37 -11 20 -11 20 10 2
12 -11 18 -26 15 -35 -4 -13 -3 -14 5 -3 5 7 16 18 23 23 11 8 10 9 -3 5 -21
-7 -54 38 -36 49 7 4 8 3 4 -5 -5 -8 1 -10 23 -6 22 4 33 1 37 -9 8 -20 32
-28 40 -13 4 7 4 9 -1 5 -4 -4 -18 3 -29 15 -12 13 -27 22 -34 19 -7 -2 -12 1
-12 8 0 6 4 9 9 5 5 -3 12 -1 16 5 12 19 43 31 51 18 5 -7 3 -8 -6 -3 -9 5
-11 4 -6 -3 4 -8 2 -10 -7 -6 -8 3 -18 1 -21 -5 -7 -11 29 -35 57 -37 14 -1
15 1 5 14 -11 13 -10 15 5 9 10 -4 16 -3 13 2 -3 5 1 12 9 15 12 4 13 10 6 25
-6 10 -8 21 -5 24 3 3 -5 4 -18 1 -12 -2 -16 -1 -8 2 8 4 18 11 21 16 3 5 12
-4 19 -21 7 -17 17 -31 23 -31 7 0 7 4 -1 12 -17 17 -15 33 3 18 10 -9 15 -9
15 -1 0 6 -4 11 -10 11 -5 0 -10 5 -10 11 0 6 9 8 20 4 12 -4 20 -2 20 5 0 6
-4 9 -9 6 -5 -3 -14 1 -21 9 -11 13 -10 14 3 9 9 -3 30 4 48 17 31 22 32 22
45 4 8 -10 14 -14 14 -8 0 7 -4 15 -10 18 -5 3 -10 11 -10 17 0 7 5 7 14 -1
16 -14 71 3 61 19 -3 5 -8 10 -11 10 -3 0 -2 -4 1 -10 3 -5 2 -10 -4 -10 -5 0
-18 -3 -28 -7 -14 -5 -13 -1 6 20 20 22 27 25 40 15 13 -10 14 -10 4 2 -18 20
-16 29 6 23 12 -3 17 -11 14 -23 -3 -10 -1 -20 4 -23 5 -3 8 6 7 21 0 15 -8
29 -20 33 -11 5 -13 8 -5 8 8 1 11 4 8 7 -4 4 -13 2 -20 -4 -8 -7 -17 -9 -21
-5 -4 4 -4 -1 -1 -12 6 -16 5 -17 -4 -5 -9 13 -11 13 -12 0 -1 -8 -1 -17 -1
-20 0 -3 -6 -11 -14 -18 -10 -9 -14 -9 -14 -1 0 6 -10 -1 -21 -15 -17 -21 -24
-25 -30 -14 -5 7 -9 18 -9 23 0 6 4 3 10 -5 5 -8 11 -12 13 -10 2 3 11 16 20
30 11 15 17 19 18 10 0 -8 5 -4 11 10 6 14 10 28 10 33 -1 4 2 6 7 5 5 -2 17
6 25 17 13 16 15 17 10 2 -5 -13 -2 -16 10 -11 9 3 13 11 9 18 -3 6 3 2 14 -9
11 -11 19 -23 16 -27 -2 -4 3 -5 12 -2 14 6 14 8 -3 20 -19 13 -27 60 -12 69
4 2 6 -7 4 -20 -3 -33 10 -39 41 -19 20 13 25 13 25 3 0 -20 37 -42 46 -27 4
7 3 8 -4 4 -6 -4 -19 5 -28 19 -9 14 -19 23 -22 20 -3 -2 -11 0 -18 5 -9 8
-12 6 -10 -6 0 -9 -6 -19 -14 -22 -13 -5 -13 -3 0 13 13 17 13 18 0 10 -12 -7
-13 -6 -3 7 7 8 11 18 8 21 -3 4 -2 5 2 2 3 -3 13 1 21 8 12 9 16 9 19 -1 3
-6 10 -9 16 -5 6 4 8 0 4 -10 -3 -10 -2 -17 3 -17 19 0 10 29 -12 41 -15 8
-18 14 -10 17 7 2 22 -4 32 -13 13 -12 23 -14 35 -7 16 8 16 9 1 15 -10 4 -15
3 -11 -3 3 -6 2 -10 -3 -10 -17 0 -22 13 -11 27 9 10 15 10 25 2 11 -9 16 -5
24 15 5 14 14 26 20 26 6 0 9 -4 5 -9 -3 -6 5 -15 17 -21 22 -11 22 -10 4 4
-11 9 -16 16 -11 16 5 0 4 5 -3 12 -9 9 -15 9 -24 0 -23 -23 -29 -12 -9 16 14
20 17 32 10 39 -8 8 -7 13 0 18 7 4 10 1 9 -7 -2 -8 6 -13 22 -12 42 3 46 4
30 14 -9 5 -19 5 -25 0 -8 -7 -12 -5 -12 5 0 8 5 11 10 8 6 -4 8 1 4 11 -4 10
-3 15 3 11 6 -3 10 -2 10 4 0 14 35 23 64 15 23 -5 25 -9 14 -23 -12 -14 -11
-14 4 -2 20 15 15 31 -8 31 -8 0 -13 4 -9 9 3 5 0 13 -6 17 -7 4 -9 3 -6 -2 3
-6 -3 -11 -14 -11 -15 -1 -17 1 -7 11 14 14 56 15 76 3 6 -5 12 -4 12 1 0 6
-7 13 -16 16 -9 3 -14 12 -11 20 3 7 0 20 -6 27 -10 11 -9 11 4 1 14 -10 18
-10 23 3 3 9 2 13 -3 10 -5 -3 -13 -1 -16 5 -4 6 -3 10 2 9 20 -3 34 2 28 11
-3 6 -1 10 5 10 7 0 9 -7 6 -16 -6 -15 -4 -15 17 -1 30 19 73 26 70 10 -1 -6
5 -17 15 -24 14 -11 15 -11 5 0 -6 7 -9 20 -6 27 3 8 1 14 -3 15 -46 6 -73 5
-69 -1 3 -5 0 -12 -6 -16 -8 -4 -9 -3 -5 4 4 7 1 12 -6 12 -8 0 -6 5 5 11 9 5
21 8 26 4 5 -3 12 -1 16 4 3 6 13 8 23 5 14 -5 15 -4 2 5 -13 10 -8 15 13 12
7 -1 11 15 8 33 -1 4 3 14 10 22 6 7 8 17 5 23 -3 5 0 12 6 14 10 4 9 8 -2 17
-13 10 -12 11 4 6 13 -5 17 -2 13 9 -4 8 -1 17 5 21 6 4 8 3 4 -4 -3 -6 1 -17
9 -26 8 -8 11 -17 6 -20 -5 -4 -12 0 -15 6 -3 7 -3 2 0 -11 5 -17 3 -21 -6
-16 -9 5 -11 4 -6 -3 4 -7 17 -17 29 -22 19 -10 20 -9 6 2 -20 16 -13 39 9 31
15 -4 15 -3 2 6 -8 6 -11 11 -6 11 5 0 4 6 -1 13 -12 16 -14 57 -3 57 5 0 10
6 13 13 2 6 3 4 2 -5 -2 -9 3 -19 11 -22 9 -3 11 0 7 11 -4 10 -2 14 5 9 6 -3
13 -2 17 4 4 6 11 8 16 5 5 -3 6 2 2 11 -4 12 -3 15 5 10 7 -4 12 -2 12 4 0 7
-6 10 -12 8 -7 -3 -19 1 -26 9 -8 7 -18 10 -24 7 -7 -4 -8 -2 -4 4 4 6 14 8
23 5 11 -4 14 -3 9 5 -4 7 -1 15 8 18 9 3 13 11 9 17 -3 6 -1 7 6 3 9 -6 8
-14 -5 -33 -16 -25 -16 -26 5 -20 12 3 21 0 21 -6 0 -6 3 -7 6 -4 4 4 1 14 -6
22 -10 12 -10 19 -2 27 9 9 12 7 12 -7 0 -18 0 -18 16 1 15 19 15 18 9 -3 -3
-12 -1 -24 4 -28 7 -4 8 1 4 11 -5 12 -3 15 6 9 10 -6 11 -3 2 13 -6 12 -17
19 -24 16 -7 -2 -21 2 -32 11 -18 14 -18 14 -1 9 16 -6 17 -5 7 17 -11 22 -11
23 3 5 9 -10 12 -24 9 -30 -4 -6 0 -6 8 1 12 10 18 10 28 0 10 -9 15 -9 24 4
7 9 19 15 28 14 12 -2 15 3 11 18 -5 20 -6 20 -13 1 -4 -10 -8 -14 -9 -9 0 6
-7 1 -16 -10 -12 -16 -16 -17 -23 -6 -5 7 -13 11 -18 8 -5 -3 -10 0 -10 8 0 8
4 12 9 9 4 -3 9 0 9 5 1 6 2 17 3 24 1 6 9 11 19 9 11 -2 15 2 11 12 -3 8 0
17 7 22 7 4 10 3 5 -4 -3 -6 -1 -14 6 -18 7 -4 10 -4 6 1 -4 4 -3 14 3 21 7 8
6 14 -2 20 -7 4 -9 3 -6 -2 3 -5 -3 -10 -14 -10 -16 0 -15 3 9 23 15 12 22 22
17 23 -6 0 -18 -6 -25 -12 -8 -7 -8 -4 2 6 18 21 46 13 28 -9 -8 -9 -6 -14 6
-19 13 -5 14 -9 4 -21 -16 -19 -3 -20 15 -1 12 12 12 15 0 20 -18 7 -20 27 -2
24 6 -2 17 -14 24 -28 7 -14 12 -19 13 -12 0 7 -5 23 -11 34 -9 17 -9 20 4 15
8 -3 23 1 34 9 17 14 17 15 -3 5 -12 -6 -24 -8 -27 -4 -4 3 -13 1 -20 -5 -11
-9 -17 -6 -27 13 -7 14 -10 28 -7 32 4 3 7 -1 7 -11 0 -10 5 -14 12 -10 7 5 8
3 3 -7 -7 -12 -6 -12 7 -1 8 7 22 11 29 9 8 -2 11 -2 7 0 -5 3 -8 11 -8 19 0
9 5 12 10 9 6 -3 10 -1 10 5 0 7 -6 10 -14 7 -23 -9 -27 22 -6 40 10 9 16 21
13 27 -3 6 -2 7 2 3 13 -11 15 -38 3 -31 -7 4 -8 2 -4 -4 4 -7 18 -9 33 -6 20
5 24 4 18 -6 -5 -9 -4 -11 4 -6 16 10 4 26 -21 26 -12 0 -18 3 -15 6 3 4 1 16
-5 28 -11 21 -11 21 10 3 23 -21 50 -14 32 8 -16 20 13 39 39 26 25 -14 31
-14 31 -1 0 6 -3 9 -7 9 -5 -1 -15 -1 -23 0 -13 1 -13 2 0 11 20 13 4 13 -21
0 -10 -6 -19 -7 -19 -3 0 13 36 32 56 29 11 -2 13 -1 5 1 -11 4 -11 7 -1 13 8
5 4 8 -13 7 -14 -1 -23 -6 -19 -11 3 -5 -1 -6 -8 -1 -7 4 -16 2 -21 -6 -7 -10
-8 -8 -6 8 2 12 7 26 12 30 4 5 5 2 0 -6 -5 -9 -3 -12 6 -9 8 3 13 11 11 17
-1 7 2 10 7 7 5 -3 12 1 15 10 5 12 2 15 -11 10 -10 -4 -5 4 11 18 16 14 33
23 39 19 5 -3 7 0 5 8 -3 8 -11 13 -18 11 -10 -2 -11 0 -3 10 6 7 9 20 8 29
-2 9 3 16 11 16 7 0 11 -4 8 -9 -3 -4 1 -8 8 -8 9 0 10 -3 2 -8 -7 -4 -8 -15
-3 -27 7 -19 8 -19 8 3 1 13 5 21 10 18 5 -4 4 5 -2 19 -7 14 -16 25 -21 25
-4 0 2 9 15 20 13 10 20 19 15 20 -5 0 -1 9 8 19 11 12 14 21 7 26 -6 3 -11
11 -11 18 0 6 6 3 13 -8 9 -12 16 -14 21 -7 9 15 38 3 29 -12 -3 -6 -2 -7 2
-3 12 10 15 38 7 51 -16 26 -10 76 10 76 7 0 7 -4 0 -13 -7 -8 -7 -18 -2 -27
7 -10 10 -11 10 -2 0 22 2 27 12 39 6 7 8 19 4 28 -3 9 3 19 15 25 11 6 17 15
14 20 -3 5 3 13 12 19 10 5 14 13 10 17 -4 4 -13 0 -20 -10 -12 -16 -14 -16
-26 -2 -12 14 -11 16 3 10 12 -5 15 -2 10 10 -3 9 -11 13 -18 9 -7 -4 -7 -1 1
9 7 8 10 18 6 22 -4 4 1 4 11 0 15 -6 17 -4 11 6 -5 8 -4 11 3 6 6 -4 9 -13 6
-21 -4 -8 -11 -12 -17 -8 -6 4 -7 1 -2 -7 6 -10 13 -7 27 11 l19 24 -6 -25
c-5 -21 -4 -22 5 -7 12 19 4 41 -12 31 -6 -4 -8 1 -3 16 5 17 4 21 -5 15 -9
-6 -11 -4 -6 4 5 7 14 10 21 7 7 -2 18 6 25 19 7 14 16 23 19 21 3 -2 7 7 7
20 1 13 -2 24 -6 24 -5 0 -7 10 -5 22 4 17 2 19 -7 10 -9 -9 -10 -17 -1 -30
13 -21 -5 -64 -28 -68 -8 -1 -23 -5 -34 -8 -11 -4 -5 1 13 10 32 18 35 24 35
80 0 23 4 31 15 30 9 -2 18 -8 20 -14 2 -7 8 -12 14 -12 6 0 5 6 -2 15 -10 11
-10 19 -2 27 6 6 8 16 5 23 -3 9 2 13 14 11 10 -2 12 -1 6 1 -12 4 -15 11 -12
29 0 4 -5 11 -13 15 -10 7 -10 9 0 9 7 0 10 5 7 10 -12 19 26 22 47 4 l22 -19
-22 29 c-12 15 -19 33 -15 39 4 6 9 3 14 -9 6 -16 8 -16 8 -2 1 9 -3 19 -8 22
-11 7 -33 -18 -24 -27 3 -4 2 -7 -4 -7 -6 0 -13 7 -17 15 -3 8 0 14 7 12 7 -1
12 5 12 13 0 8 -6 14 -13 12 -8 -1 -11 2 -7 8 3 6 12 7 18 3 19 -12 40 -13 54
-1 19 15 5 30 -17 18 -25 -13 -31 -13 -28 3 2 6 -3 11 -10 9 -8 -1 -11 2 -7 8
5 8 11 7 21 -1 11 -9 17 -9 28 0 10 8 16 9 21 1 3 -5 11 -10 16 -10 6 0 4 7
-5 15 -16 16 -12 45 7 45 6 0 8 2 5 5 -8 8 -39 -6 -33 -15 2 -4 -2 -15 -9 -25
-13 -18 -14 -18 -25 3 -8 15 -8 23 1 28 6 4 8 3 5 -2 -3 -6 -1 -16 4 -24 8
-11 9 -7 7 16 -3 22 0 30 8 27 7 -2 15 0 18 6 4 6 12 9 19 7 7 -1 9 -1 4 1 -4
3 -4 10 0 16 5 9 3 9 -8 0 -12 -10 -17 -8 -27 7 -9 14 -9 21 0 26 6 4 8 3 4
-4 -3 -6 -1 -14 4 -17 16 -10 6 70 -11 92 -13 16 -12 17 4 4 14 -11 17 -11 17
0 0 11 2 11 10 -1 13 -20 12 -39 -1 -20 -9 13 -10 13 -6 0 2 -8 10 -14 16 -12
7 1 11 -5 9 -14 -2 -9 3 -18 10 -20 7 -1 8 0 3 2 -6 3 -7 12 -4 20 3 8 1 20
-4 27 -17 21 -23 46 -12 52 5 4 9 3 8 -2 -3 -12 12 -43 20 -43 4 0 8 7 8 15 0
8 -4 12 -8 9 -4 -2 -10 0 -14 6 -6 10 6 14 35 11 13 -2 13 0 1 8 -8 5 -21 7
-29 3 -10 -3 -13 -1 -8 6 13 22 -13 12 -28 -10 -9 -12 -16 -17 -16 -11 0 7 5
15 10 18 6 4 7 11 4 17 -4 7 -2 8 4 4 7 -4 12 -3 12 3 0 6 6 8 14 5 8 -3 17 0
22 7 4 8 3 10 -5 5 -8 -5 -11 6 -10 38 2 36 6 46 23 50 12 4 17 9 11 13 -16
12 -39 57 -24 48 7 -5 10 -3 7 6 -3 8 -11 13 -17 11 -7 -1 -10 2 -6 8 5 8 11
8 20 0 11 -9 13 -7 11 12 -1 13 -6 30 -11 37 -5 9 -4 12 3 7 6 -3 13 -2 17 4
6 9 -8 14 -28 11 -5 -1 -6 3 -2 8 3 6 13 7 23 4 15 -6 16 -5 2 13 -8 10 -10
16 -6 12 5 -4 14 -3 21 2 8 7 12 5 12 -5 0 -8 -3 -12 -7 -10 -4 2 -7 -2 -7
-10 0 -8 4 -15 9 -15 7 0 12 15 9 33 0 4 5 7 11 7 9 0 8 4 -2 10 -8 5 -24 7
-35 4 -15 -4 -17 -3 -6 5 13 8 13 12 1 28 -12 15 -11 15 10 -2 l24 -20 -18 28
c-10 16 -15 31 -12 35 3 3 6 0 6 -7 0 -7 5 -9 10 -6 8 5 7 11 -1 21 -14 17
-10 23 20 29 11 2 21 -1 21 -7 0 -5 -6 -8 -14 -5 -10 4 -13 -3 -11 -24 2 -18
-1 -26 -8 -22 -6 3 -7 1 -3 -5 4 -6 14 -8 22 -5 9 3 12 9 7 12 -11 8 -15 31
-5 31 4 0 14 -6 21 -13 11 -10 12 -9 5 3 -5 8 -9 22 -9 30 0 8 -6 14 -12 12
-17 -3 -17 15 0 21 7 4 6 6 -5 6 -9 1 -18 -4 -20 -11 -3 -8 -7 -6 -11 5 -3 9
-3 16 1 16 27 -4 32 2 21 22 -8 15 -8 19 0 15 14 -9 14 0 0 25 -10 20 -10 20
16 3 14 -9 28 -14 31 -11 3 3 -4 8 -15 12 -15 5 -19 13 -16 36 2 18 0 27 -6
23 -6 -3 -8 -12 -6 -18 3 -7 -1 -13 -8 -13 -9 0 -11 6 -6 16 5 9 6 23 4 31 -4
13 -3 13 6 0 6 -8 11 -10 11 -5 0 11 39 -36 40 -48 0 -5 -5 -5 -12 -1 -7 5 -8
3 -3 -5 5 -8 11 -9 17 -3 9 9 -14 58 -34 72 -12 9 3 49 16 44 7 -3 13 2 13 10
0 15 -27 10 -39 -8 -5 -7 -8 -7 -8 2 0 7 7 15 15 18 14 6 13 8 -1 19 -14 9
-14 14 -4 20 9 5 11 4 6 -3 -4 -7 -2 -12 3 -12 6 0 11 9 11 21 0 13 4 18 13
13 9 -6 9 -4 1 7 -6 8 -11 28 -12 44 -1 24 0 27 9 15 9 -13 10 -12 5 3 -3 10
0 17 7 17 7 0 4 5 -6 11 -15 9 -16 13 -5 27 11 13 11 14 -1 7 -11 -6 -13 -4
-8 8 3 9 0 23 -8 31 -13 12 -12 15 1 20 8 3 12 2 9 -3 -3 -5 -2 -12 3 -15 4
-2 8 4 9 14 1 11 -3 22 -8 25 -5 4 -7 11 -4 16 4 5 1 9 -5 9 -7 0 -9 -8 -5
-20 4 -14 2 -20 -9 -20 -8 0 -18 4 -21 10 -3 6 1 7 10 4 11 -5 14 -2 9 10 -4
12 3 20 27 31 23 9 28 14 15 15 -11 0 -16 3 -13 7 4 3 2 12 -5 20 -8 10 -8 17
0 25 12 12 5 38 -10 38 -5 0 -7 -4 -4 -8 2 -4 -5 -9 -17 -9 -20 -2 -20 -1 -4
8 13 8 15 14 8 23 -8 9 -6 18 5 32 14 17 15 17 10 1 -3 -11 -2 -16 4 -12 6 3
10 1 10 -4 0 -6 -5 -11 -12 -11 -6 0 -9 -2 -6 -5 3 -3 12 -3 21 1 14 5 15 10
5 27 -13 25 -21 117 -10 117 4 0 8 10 9 23 0 12 -1 16 -4 10 -3 -7 -11 -13
-18 -13 -18 0 -24 21 -14 42 7 12 4 20 -8 27 -14 8 -15 10 -3 11 13 0 13 1 0
10 -8 5 -10 10 -3 10 18 0 8 33 -13 41 -17 7 -17 8 -2 8 10 1 17 7 15 14 -1 7
6 11 18 9 16 -2 17 -1 5 7 -12 9 -13 11 -1 11 8 0 12 3 9 6 -4 3 -17 0 -30 -7
l-23 -12 20 23 c11 13 15 20 8 17 -6 -4 -15 -2 -19 4 -4 8 -3 9 4 5 7 -4 12
-3 12 3 0 6 8 8 18 5 13 -5 14 -4 3 4 -8 6 -22 9 -32 7 -10 -2 -21 1 -25 6 -3
5 0 8 8 7 8 -2 13 7 13 22 0 17 -5 24 -15 22 -10 -1 -9 2 4 13 11 8 29 13 40
10 21 -6 21 -6 1 7 -11 7 -21 20 -23 28 -2 8 -9 18 -15 22 -13 8 -18 36 -7 43
5 3 7 -4 5 -15 -2 -11 0 -20 6 -20 9 0 7 23 -6 52 -4 10 -10 16 -14 13 -4 -2
-8 2 -8 10 0 21 8 19 35 -12 l24 -28 -21 31 c-16 24 -18 34 -8 44 9 10 9 11 0
6 -16 -9 -49 14 -48 33 0 8 9 17 19 21 19 6 19 7 1 14 -11 4 -22 2 -27 -6 -5
-8 -8 -9 -8 -2 0 6 9 18 21 25 21 14 18 49 -4 49 -7 0 -7 -4 1 -12 7 -7 12
-17 12 -22 0 -6 -5 -3 -11 7 -6 9 -14 15 -20 12 -5 -4 -9 -2 -9 3 0 6 7 13 16
16 8 3 12 11 8 17 -3 6 0 16 7 21 11 7 9 8 -5 4 -13 -5 -17 -2 -12 9 3 8 2 14
-2 14 -4 -1 -14 -1 -22 0 -13 1 -13 3 -1 10 8 5 20 7 27 4 6 -2 15 1 19 7 4 7
1 10 -10 8 -10 -2 -20 3 -23 11 -3 10 0 11 9 5 11 -6 12 -5 2 7 -7 9 -11 25
-8 37 3 19 1 21 -16 12 -24 -13 -25 -24 -1 -15 13 5 14 3 5 -6 -14 -14 -36 -2
-26 14 12 19 12 37 2 37 -6 0 -7 5 -3 12 5 8 2 9 -10 5 -10 -4 -15 -3 -11 3 3
5 19 7 35 5 16 -2 32 0 35 4 2 5 -3 8 -13 8 -34 0 -37 4 -37 41 1 45 -4 62
-17 62 -7 0 -6 -5 1 -13 8 -11 6 -18 -12 -33 l-22 -19 19 23 c17 20 15 27 -7
23 -5 -1 -6 3 -3 8 4 5 2 12 -4 16 -5 3 -10 11 -10 18 0 6 7 2 15 -9 14 -18
14 -18 15 7 0 14 -5 30 -12 37 -8 8 -8 15 2 27 17 21 2 19 -18 -3 -10 -9 -14
-13 -9 -8 14 19 7 28 -10 15 -17 -13 -17 -12 -2 6 21 26 14 52 -9 33 -14 -12
-14 -11 -2 9 12 18 17 20 30 10 12 -10 12 -8 -1 8 -9 11 -14 26 -12 33 3 6 0
12 -7 12 -6 0 -8 -6 -4 -12 4 -7 -1 -5 -12 4 -14 14 -16 20 -6 30 15 15 16 28
1 28 -5 0 -7 -4 -4 -10 4 -6 -1 -7 -11 -3 -14 5 -13 8 7 20 14 8 16 12 6 9
-15 -5 -17 -2 -12 17 6 18 5 20 -6 10 -19 -19 -33 -16 -15 2 16 16 12 45 -6
45 -6 0 -6 -6 1 -14 9 -11 9 -16 -1 -22 -7 -4 -10 -3 -5 1 4 5 -1 17 -10 28
-10 11 -13 17 -6 14 6 -4 18 -1 26 7 8 8 18 12 22 8 5 -4 5 -1 1 6 -4 7 -12
10 -17 7 -5 -4 -12 1 -15 9 -3 9 -16 16 -28 16 -16 0 -18 2 -6 9 8 6 18 7 23
4 5 -3 2 8 -7 25 -8 16 -13 32 -11 34 3 3 -1 5 -9 5 -12 0 -12 -4 1 -24 9 -13
13 -26 10 -29 -3 -3 -8 4 -12 15 -3 12 -10 19 -15 16 -14 -9 -4 26 11 37 11 7
9 9 -8 5 -13 -3 -26 0 -30 5 -3 7 -1 8 5 4 11 -7 17 7 12 29 -1 5 -2 17 -3 27
-1 9 -4 15 -8 12 -4 -2 -17 17 -29 42 -19 38 -20 48 -9 56 10 6 7 7 -9 3 -21
-6 -23 -5 -13 13 14 26 14 32 0 32 -5 0 -8 -4 -5 -9 3 -5 -2 -15 -11 -22 -14
-12 -15 -11 -9 9 6 17 1 29 -22 52 -22 22 -26 30 -15 34 9 4 11 2 7 -6 -5 -7
-3 -8 6 -3 9 6 11 4 5 -5 -5 -8 -4 -11 3 -6 5 3 12 1 14 -6 3 -7 7 -5 11 6 4
9 3 15 -2 12 -5 -3 -14 1 -21 9 -8 10 -21 13 -34 9 -21 -6 -21 -6 -1 10 11 8
16 16 11 16 -5 0 -2 8 5 18 13 15 12 16 -3 3 -10 -7 -15 -18 -11 -24 3 -6 1
-7 -6 -3 -6 4 -9 12 -6 17 4 5 -1 12 -9 15 -11 4 -14 15 -12 31 4 21 3 23 -10
13 -9 -8 -14 -9 -14 -2 0 6 5 14 10 17 13 8 13 25 -1 25 -5 0 -7 -4 -4 -10 4
-6 -1 -7 -11 -3 -10 4 -13 8 -7 10 6 2 9 13 6 24 -4 15 -2 18 13 13 16 -5 16
-4 4 5 -9 6 -18 7 -24 1 -13 -13 -29 -13 -21 -1 3 5 1 12 -5 16 -5 3 -15 15
-21 27 -6 11 -7 18 -2 15 5 -3 9 3 9 13 0 12 -4 16 -11 10 -6 -4 -16 -1 -25 8
-13 14 -12 15 3 9 9 -3 19 -1 23 5 4 7 3 8 -4 4 -7 -4 -12 -1 -12 8 0 9 -5 16
-11 16 -5 0 -7 -4 -4 -10 3 -5 1 -10 -4 -10 -6 0 -12 5 -12 10 -1 6 -3 15 -4
20 -1 6 -3 15 -4 21 0 5 -6 7 -13 3 -6 -4 -8 -3 -4 4 3 6 1 14 -5 17 -5 4 -8
14 -5 22 5 11 2 13 -11 9 -10 -4 -14 -4 -11 0 4 3 -3 15 -15 26 -12 11 -17 17
-11 14 7 -3 14 2 16 12 3 11 0 19 -8 19 -7 0 -10 -5 -7 -10 3 -6 1 -7 -5 -3
-21 13 -33 44 -20 52 6 4 8 3 5 -2 -3 -6 -1 -16 4 -24 7 -11 8 -8 5 10 -3 14
-5 30 -5 35 -1 6 -5 4 -10 -4 -7 -10 -12 -11 -27 -1 -15 9 -16 10 -2 6 12 -3
15 -1 11 9 -3 8 -9 12 -14 9 -5 -3 -9 2 -9 11 0 10 5 13 13 9 8 -5 8 -2 -2 9
-7 9 -19 17 -25 17 -6 0 -5 -4 3 -9 7 -5 9 -11 4 -14 -5 -3 -15 3 -22 15 -7
11 -8 17 -2 13 6 -3 11 -1 11 4 0 6 -10 11 -22 12 l-23 0 23 11 c12 6 22 15
22 20 0 5 -4 7 -9 3 -5 -3 -12 -1 -16 4 -3 5 -14 8 -24 6 -14 -3 -18 1 -14 16
4 13 0 19 -11 19 -10 0 -14 5 -11 10 4 6 11 7 17 4 6 -4 8 -2 5 4 -4 5 -16 8
-26 5 -10 -3 -22 1 -27 8 -5 9 -2 10 11 5 15 -5 16 -4 5 9 -7 8 -9 15 -4 15 4
0 2 6 -5 13 -6 6 -21 12 -32 12 -10 0 -19 5 -19 10 -1 6 -16 26 -35 45 -29 29
-33 38 -23 49 11 11 10 13 -4 8 -16 -6 -32 6 -40 28 -1 6 -7 9 -11 7 -4 -1 -3
7 3 19 7 11 9 23 6 27 -3 3 -6 0 -6 -7 0 -7 -5 -9 -12 -5 -7 5 -9 2 -4 -7 4
-8 0 -5 -8 5 -9 11 -16 24 -16 29 0 4 -6 5 -12 1 -7 -4 -10 -4 -6 0 3 4 -10
23 -30 43 -21 19 -31 32 -24 28 6 -3 12 -1 12 4 0 6 -7 11 -15 11 -8 0 -25 12
-39 27 -20 22 -23 30 -13 42 10 12 9 13 -13 1 -22 -12 -24 -12 -12 2 10 13 10
18 1 24 -8 4 -9 3 -5 -4 10 -17 -3 -15 -20 2 -8 8 -12 20 -11 28 2 7 2 10 0 6
-3 -5 -9 -8 -14 -8 -6 0 -7 5 -4 10 3 6 -1 10 -9 10 -19 0 -21 17 -4 22 7 3 5
7 -6 11 -10 4 -15 3 -11 -3 3 -6 3 -10 0 -10 -11 0 -100 93 -98 101 2 5 -5 5
-14 2 -11 -4 -14 -3 -9 5 4 7 2 12 -3 12 -6 0 -11 5 -11 11 0 5 5 7 12 3 7 -4
8 -3 4 5 -6 8 -12 9 -20 2 -14 -12 -36 4 -36 26 0 7 -4 13 -10 13 -5 0 -12 0
-15 0 -2 1 -28 23 -56 50 -29 28 -57 50 -61 50 -5 0 -7 4 -4 9 3 5 -6 12 -20
15 -26 7 -26 7 -8 29 14 16 15 18 2 9 -11 -9 -18 -10 -23 -2 -3 5 -12 10 -18
10 -7 0 -6 -4 3 -11 13 -9 13 -10 0 -6 -8 2 -15 11 -15 20 0 8 -4 19 -9 24 -5
4 -6 3 -2 -4 4 -7 3 -13 -2 -13 -6 0 -13 7 -16 16 -4 9 -9 14 -12 11 -3 -3
-17 5 -31 19 -13 13 -28 24 -33 24 -6 0 -10 8 -11 18 0 11 -2 12 -6 4 -4 -10
-8 -10 -19 -1 -8 6 -14 17 -14 23 0 6 5 4 10 -4 5 -8 10 -10 10 -4 0 19 -13
24 -28 11 -13 -10 -15 -9 -9 5 3 10 1 20 -5 24 -7 4 -8 3 -4 -4 4 -7 2 -12 -3
-12 -6 0 -11 8 -11 18 0 14 -2 15 -10 2 -9 -13 -10 -13 -11 0 -1 8 -1 19 0 23
1 5 -3 6 -9 2 -6 -3 -7 -11 -4 -17 5 -7 2 -8 -5 -4 -7 5 -10 15 -6 23 4 13 3
14 -9 4 -11 -10 -14 -9 -12 1 1 7 6 20 11 28 6 10 2 9 -12 -3 -17 -15 -22 -15
-31 -4 -7 8 -8 18 -4 23 4 4 0 3 -9 -4 -17 -13 -29 -7 -29 15 0 8 5 11 12 7 7
-4 8 -3 4 5 -6 9 -11 9 -22 0 -12 -10 -17 -8 -28 7 -8 10 -13 21 -11 24 2 3
-5 6 -15 6 -10 0 -16 -5 -13 -11 4 -5 -3 -1 -16 9 -12 11 -20 25 -17 32 3 8
-1 11 -9 7 -8 -3 -12 -10 -8 -17 4 -7 2 -7 -7 1 -11 10 -11 15 1 30 13 17 13
17 -6 1 -14 -12 -25 -14 -35 -8 -13 8 -12 10 3 10 9 0 17 4 17 10 0 6 -9 6
-26 -1 -23 -8 -25 -8 -15 5 9 11 9 16 0 22 -8 4 -9 3 -5 -4 4 -7 3 -12 -3 -12
-5 0 -12 6 -14 13 -4 8 -6 7 -7 -3 0 -10 -6 -6 -16 10 -11 18 -14 20 -10 5 6
-19 5 -19 -8 -2 -7 9 -17 17 -21 17 -4 0 -14 8 -22 18 -8 9 -12 11 -8 5 3 -8
-6 -6 -24 5 -17 9 -31 20 -31 24 0 4 -7 5 -15 2 -9 -4 -18 1 -21 11 -4 9 -13
14 -20 11 -9 -4 -14 2 -15 17 -1 16 -3 17 -6 5 -4 -15 -7 -15 -39 4 -19 11
-34 25 -34 31 0 7 -5 5 -10 -3 -7 -11 -10 -11 -10 -2 0 7 -5 10 -12 6 -7 -5
-8 -3 -3 6 6 10 4 12 -7 7 -9 -3 -26 4 -39 16 -13 12 -25 21 -26 20 -7 -7 -24
-2 -19 5 3 5 -5 8 -17 7 -37 -3 -102 32 -99 52 2 12 0 14 -5 6 -5 -7 -15 -11
-23 -9 -32 5 -60 18 -60 27 0 5 11 2 25 -7 23 -15 25 -15 19 0 -3 9 -10 14
-14 11 -5 -3 -11 -1 -15 5 -4 6 -12 7 -18 3 -18 -11 -36 -12 -42 -3 -3 5 4 7
15 5 11 -2 18 0 15 5 -6 9 -24 8 -42 -3 -8 -5 -13 -3 -13 3 0 6 -4 8 -10 5 -6
-4 -7 1 -3 12 6 15 4 16 -9 5 -11 -9 -18 -10 -23 -2 -3 6 -11 8 -16 5 -5 -4
-12 1 -15 9 -3 9 -10 16 -16 16 -5 0 -6 -6 -2 -12 5 -9 2 -9 -9 1 -9 7 -17 11
-17 7 0 -9 -59 23 -83 45 -11 10 -24 16 -28 13 -36 -22 -92 -6 -82 24 5 14 3
13 -11 -3 -17 -20 -17 -20 -11 5 l6 25 -14 -24 c-9 -16 -17 -20 -21 -12 -4 6
-15 10 -24 9 -10 -2 -16 3 -14 11 2 9 -4 12 -19 8 -24 -7 -49 1 -49 15 0 5 5
6 12 2 7 -5 8 -3 3 6 -6 10 -10 10 -19 -3 -8 -10 -17 -12 -28 -6 -8 5 -29 10
-46 11 -17 1 -28 6 -26 10 3 5 11 5 17 1 7 -4 6 0 -2 10 -14 18 -26 23 -17 8
3 -5 0 -11 -8 -14 -21 -8 -51 -1 -49 12 2 6 -3 12 -10 12 -6 1 -19 2 -27 3 -8
1 -19 -1 -25 -4 -5 -4 -16 -5 -22 -4 -7 1 -17 2 -23 3 -5 0 -10 6 -10 12 0 5
4 8 8 5 5 -3 9 1 9 9 0 20 -3 19 -28 -6 l-21 -21 -19 28 c-10 16 -19 23 -19
16 0 -10 -5 -10 -20 -2 -16 8 -22 8 -26 -4 -3 -9 -14 -13 -27 -9 -28 6 -83 13
-124 16 -17 1 -30 4 -27 8 2 4 -14 6 -35 5 -47 -3 -67 6 -56 25 5 8 5 11 0 7
-4 -4 -15 -2 -23 5 -13 9 -14 9 -8 0 8 -14 -6 -18 -18 -6 -11 11 -46 14 -46 4
0 -6 9 -8 19 -6 11 2 22 -2 24 -9 3 -7 -1 -13 -9 -13 -8 0 -14 5 -14 10 0 5
-7 4 -15 -3 -14 -12 -19 -7 -16 13 1 5 -3 6 -9 2 -5 -3 -18 -1 -29 5 -14 7
-22 7 -27 -2 -4 -6 -3 -8 4 -4 6 3 13 3 16 -2 2 -4 -15 -8 -39 -7 -33 0 -41 3
-33 13 14 16 2 15 -26 -3 -22 -15 -23 -14 -21 8 2 15 -2 24 -11 24 -8 0 -14
-4 -14 -9 0 -4 5 -8 12 -8 6 0 8 -3 5 -6 -11 -11 -77 -13 -77 -3 0 6 6 7 13 3
8 -5 8 -2 -2 9 -15 18 -26 23 -16 7 3 -5 1 -10 -5 -10 -6 0 -8 -5 -4 -12 4 -6
3 -8 -4 -4 -6 3 -9 16 -7 27 3 17 2 19 -10 9 -8 -6 -11 -18 -8 -26 3 -8 0 -14
-7 -14 -6 0 -8 5 -5 10 3 6 1 10 -5 10 -6 0 -9 4 -6 8 3 5 -1 9 -9 9 -8 0 -12
-4 -9 -9 8 -12 -29 -6 -37 6 -4 5 -13 5 -20 0 -19 -12 -83 -12 -91 1 -5 6 -8
3 -8 -8 0 -13 6 -16 25 -13 14 3 23 1 20 -3 -10 -17 -50 -5 -63 19 -11 21 -13
22 -11 5z m176 -20 c13 1 20 -1 17 -4 -9 -9 -103 -8 -98 1 3 5 9 6 14 3 5 -3
12 -1 15 5 4 7 11 7 18 2 7 -5 22 -8 34 -7z m-260 -9 c5 -5 1 -7 -9 -3 -9 3
-18 1 -20 -5 -2 -6 -8 -5 -15 4 -10 11 -8 14 12 13 13 0 27 -4 32 -9z m28 4
c3 -5 1 -10 -4 -10 -6 0 -11 5 -11 10 0 6 2 10 4 10 3 0 8 -4 11 -10z m665
-20 c0 -5 -5 -10 -11 -10 -5 0 -7 5 -4 10 3 6 8 10 11 10 2 0 4 -4 4 -10z
m340 -51 c0 -4 -9 -7 -19 -6 -11 0 -18 4 -16 7 6 9 35 8 35 -1z m-2200 -146
c0 -3 -6 -3 -14 0 -8 3 -17 -1 -20 -9 -3 -8 -10 -14 -16 -14 -5 0 -2 9 7 19
14 17 43 19 43 4z m2799 3 c10 -12 8 -13 -8 -9 -12 3 -18 9 -15 14 7 12 10 11
23 -5z m-2919 -34 c0 -13 -12 -22 -22 -16 -10 6 -1 24 13 24 5 0 9 -4 9 -8z
m-517 -219 c-3 -7 -9 -10 -14 -7 -14 8 -11 21 5 21 8 0 12 -6 9 -14z m-683
-419 c0 -8 -19 -13 -24 -6 -3 5 1 9 9 9 8 0 15 -2 15 -3z m-197 -139 c-3 -9
-8 -14 -10 -11 -3 3 -2 9 2 15 9 16 15 13 8 -4z m-28 -15 c-3 -5 -1 -10 6 -10
7 0 10 -3 6 -6 -9 -9 -28 6 -22 17 4 5 8 9 11 9 3 0 2 -4 -1 -10z m-390 -380
c3 -6 -1 -7 -9 -4 -11 4 -16 0 -16 -11 0 -9 -5 -13 -10 -10 -8 5 -7 11 1 21
13 16 25 18 34 4z m-109 -112 c5 -7 3 -8 -6 -3 -10 6 -12 4 -7 -7 3 -10 0 -15
-11 -14 -9 0 -17 -3 -17 -9 -1 -16 -24 -51 -25 -37 0 7 -5 10 -10 7 -6 -4 -8
-11 -5 -16 4 -5 -1 -16 -9 -25 -9 -8 -16 -12 -16 -7 0 5 5 14 12 21 7 7 8 12
3 12 -5 0 11 20 35 45 50 51 46 49 56 33z m7128 -299 c-3 -5 -10 -7 -15 -3 -5
3 -7 10 -3 15 3 5 10 7 15 3 5 -3 7 -10 3 -15z m91 -109 c3 -5 -1 -10 -10 -10
-9 0 -13 5 -10 10 3 6 8 10 10 10 2 0 7 -4 10 -10z m-7560 -28 c-8 -8 -25 10
-19 20 4 6 9 5 15 -3 4 -7 6 -15 4 -17z m8000 -752 c3 -6 -1 -7 -9 -4 -18 7
-21 14 -7 14 6 0 13 -4 16 -10z m32 -66 c-3 -3 -12 -4 -19 -1 -8 3 -5 6 6 6
11 1 17 -2 13 -5z m18 -35 c0 -8 5 -17 10 -21 6 -5 6 -8 -1 -8 -6 0 -18 8 -25
17 -10 11 -10 14 -1 9 6 -4 12 -3 12 3 0 5 -5 12 -10 14 -6 3 -5 4 2 3 7 -2
13 -9 13 -17z m75 -174 c10 -12 10 -15 -2 -15 -8 0 -15 7 -15 15 0 8 1 15 2
15 2 0 8 -7 15 -15z m58 -220 c-3 -3 -9 2 -12 12 -6 14 -5 15 5 6 7 -7 10 -15
7 -18z m-8834 -90 c-4 -8 -11 -15 -16 -15 -6 0 -5 6 2 15 7 8 14 15 16 15 2 0
1 -7 -2 -15z m8880 -13 c3 -5 -1 -9 -9 -9 -8 0 -12 4 -9 9 3 4 7 8 9 8 2 0 6
-4 9 -8z m33 -117 c0 -8 -4 -15 -9 -15 -10 0 -11 14 -1 23 9 10 10 9 10 -8z
m-8963 -66 c-8 -14 -21 -11 -21 5 0 8 6 12 14 9 7 -3 10 -9 7 -14z m8994 -114
c-3 -3 -9 2 -12 12 -6 14 -5 15 5 6 7 -7 10 -15 7 -18z m-9028 -19 c-7 -7 -13
-7 -20 0 -6 6 -3 10 10 10 13 0 16 -4 10 -10z m9080 -220 c0 -3 -4 -8 -10 -11
-5 -3 -10 -1 -10 4 0 6 5 11 10 11 6 0 10 -2 10 -4z m35 -136 c3 -5 1 -10 -4
-10 -6 0 -11 5 -11 10 0 6 2 10 4 10 3 0 8 -4 11 -10z m39 -385 c-4 -8 -8 -15
-10 -15 -2 0 -4 7 -4 15 0 8 4 15 10 15 5 0 7 -7 4 -15z m3 -51 c0 -21 -11
-16 -23 10 -10 22 -10 23 6 14 9 -6 17 -17 17 -24z m3 -28 c0 -2 -7 -7 -16
-10 -8 -3 -12 -2 -9 4 6 10 25 14 25 6z m5 -106 c-3 -5 -14 -10 -23 -9 -14 0
-13 2 3 9 27 11 27 11 20 0z m1 -55 c1 -8 -1 -15 -6 -15 -10 0 -20 26 -13 34
8 8 16 -1 19 -19z m-11 -153 c-3 -3 -1 -10 4 -16 11 -13 -15 -54 -26 -42 -4 4
-3 10 2 14 19 13 17 35 -2 28 -17 -6 -17 -5 -1 7 14 11 15 16 5 27 -10 12 -9
12 6 1 9 -8 15 -16 12 -19z m-1 -113 c-3 -5 -10 -7 -15 -3 -5 3 -7 10 -3 15 3
5 10 7 15 3 5 -3 7 -10 3 -15z m-80 -639 c-6 -5 -24 21 -24 34 0 6 6 1 14 -10
8 -10 12 -21 10 -24z m-30 -45 c-4 -8 -11 -15 -16 -15 -6 0 -5 6 2 15 7 8 14
15 16 15 2 0 1 -7 -2 -15z m-49 -245 c10 -11 16 -20 13 -20 -3 0 -13 9 -23 20
-10 11 -16 20 -13 20 3 0 13 -9 23 -20z m10 -120 c-3 -5 -12 -10 -18 -10 -7 0
-6 4 3 10 19 12 23 12 15 0z m-114 -173 c-10 -9 -11 -8 -5 6 3 10 9 15 12 12
3 -3 0 -11 -7 -18z m34 1 c-1 -12 -9 -22 -18 -24 -15 -2 -15 0 0 22 19 29 20
30 18 2z m-50 -98 c3 -5 1 -10 -4 -10 -6 0 -11 5 -11 10 0 6 2 10 4 10 3 0 8
-4 11 -10z m-45 -216 c0 -3 -4 -3 -9 0 -5 3 -12 -1 -15 -10 -4 -9 -9 -14 -13
-11 -3 4 -12 2 -19 -4 -8 -7 -14 -7 -19 1 -4 6 -1 9 7 8 8 -2 12 5 10 17 l-4
20 17 -20 c16 -20 16 -20 12 2 -4 20 -2 21 14 12 10 -5 19 -12 19 -15z m-30
-49 c0 -9 -6 -12 -15 -9 -8 4 -12 10 -9 15 8 14 24 10 24 -6z m-46 -76 c-2 -4
0 -10 6 -14 15 -9 12 -28 -4 -22 -7 3 -19 0 -25 -6 -8 -8 -11 -8 -11 1 0 7 5
12 10 12 12 0 9 22 -5 32 -5 4 0 6 12 5 12 0 20 -4 17 -8z m-74 -99 c0 -5 -5
-10 -11 -10 -5 0 -7 5 -4 10 3 6 8 10 11 10 2 0 4 -4 4 -10z m-118 -282 c-8
-8 -9 -15 -1 -25 7 -7 7 -13 3 -13 -12 0 -34 36 -27 44 4 3 13 6 22 6 11 0 12
-3 3 -12z m-88 -119 c-2 -4 1 -9 8 -11 9 -3 9 -6 1 -11 -7 -4 -16 1 -22 11 -7
14 -6 19 4 19 8 0 12 -4 9 -8z m-114 -159 c0 -5 -5 -10 -11 -10 -5 0 -7 5 -4
10 3 6 8 10 11 10 2 0 4 -4 4 -10z m-73 -157 c7 -20 -16 -24 -26 -4 -9 16 -8
19 6 17 9 -2 19 -8 20 -13z m-133 -154 c-8 -9 -11 -19 -6 -20 5 -2 -3 -14 -18
-26 -25 -20 -29 -21 -46 -7 -18 14 -18 15 2 5 27 -13 39 -2 16 16 -16 12 -16
13 2 6 15 -5 17 -3 11 8 -4 8 -5 11 -1 7 9 -7 36 13 30 23 -2 3 3 6 11 6 13 0
13 -3 -1 -18z m-7220 -30 c-2 -4 2 -10 8 -12 8 -4 9 -6 2 -6 -6 -1 -17 5 -23
12 -8 10 -7 14 4 14 8 0 12 -4 9 -8z m123 -149 c8 0 11 -5 7 -12 -8 -13 -45
26 -43 46 0 6 5 1 11 -11 6 -13 17 -23 25 -23z m6940 1 c0 -11 -5 -18 -9 -15
-4 3 -5 11 -1 19 7 21 12 19 10 -4z m-6817 -115 c0 -3 -4 -8 -10 -11 -5 -3
-10 -1 -10 4 0 6 5 11 10 11 6 0 10 -2 10 -4z m6651 -39 c-10 -9 -11 -8 -5 6
3 10 9 15 12 12 3 -3 0 -11 -7 -18z m20 -16 c-7 -13 -18 -18 -29 -15 -12 4
-10 0 6 -12 12 -9 22 -21 22 -27 0 -7 -4 -7 -12 1 -9 9 -16 8 -32 -6 -12 -9
-18 -13 -14 -8 4 5 3 18 -3 30 -9 20 -9 20 4 3 9 -11 18 -14 21 -8 4 5 2 12
-4 16 -14 9 -1 27 15 21 8 -3 17 4 20 15 4 11 9 18 12 16 2 -3 0 -15 -6 -26z
m-91 -51 c0 -5 -2 -10 -4 -10 -3 0 -8 5 -11 10 -3 6 -1 10 4 10 6 0 11 -4 11
-10z m-80 -90 c0 -5 -5 -10 -11 -10 -5 0 -7 5 -4 10 3 6 8 10 11 10 2 0 4 -4
4 -10z m-158 -172 c-9 -9 -15 -9 -24 1 -11 10 -9 11 6 5 16 -6 18 -4 12 12 -6
15 -5 17 5 7 10 -10 10 -16 1 -25z m-5920 -60 c-6 -6 -12 -6 -17 3 -5 8 -4 10
3 5 7 -4 12 0 13 11 0 12 2 13 6 5 3 -8 1 -18 -5 -24z m5872 17 c-4 -8 -8 -15
-10 -15 -2 0 -4 7 -4 15 0 8 4 15 10 15 5 0 7 -7 4 -15z m-42 -39 c3 3 8 -2
11 -9 3 -9 -4 -19 -19 -26 -14 -6 -22 -16 -19 -21 11 -17 -12 -11 -26 8 -7 9
-9 14 -5 10 5 -4 15 -3 22 3 10 8 11 16 3 31 -9 17 -8 18 9 9 11 -6 22 -8 24
-5z m-5668 -92 c5 -13 4 -14 -7 -6 -8 7 -18 8 -22 4 -5 -4 -5 -1 -1 6 10 17
23 15 30 -4z m5393 -113 c1 -10 -4 -18 -12 -18 -7 0 -12 10 -11 22 1 26 21 23
23 -4z m-5233 -13 c-9 -14 -23 2 -17 18 4 12 8 13 14 3 4 -7 5 -17 3 -21z
m5175 19 c-2 -1 -13 -9 -24 -17 -19 -14 -19 -14 -6 3 7 9 18 17 24 17 6 0 8
-1 6 -3z m-59 -72 c0 -12 -19 -12 -23 0 -4 9 -1 12 9 8 7 -3 14 -7 14 -8z
m-66 -62 c-16 -13 -35 -21 -41 -18 -7 2 -24 -7 -37 -20 -28 -28 -46 -34 -25
-9 12 15 11 16 -9 10 -12 -4 -22 -3 -22 2 0 5 12 9 28 8 23 -1 27 3 25 24 -1
14 0 18 3 8 8 -26 18 -22 32 10 7 16 9 18 6 5 -3 -12 0 -24 6 -28 5 -3 10 1
10 10 0 12 5 15 16 11 13 -5 15 -2 11 14 -5 18 -3 19 10 8 13 -11 12 -15 -13
-35z m-4853 -16 c-10 -9 -11 -8 -5 6 3 10 9 15 12 12 3 -3 0 -11 -7 -18z m123
-59 c-3 -4 0 -8 5 -8 6 0 11 -8 11 -17 0 -14 -3 -13 -16 5 -8 12 -20 19 -26
16 -6 -4 -8 -3 -5 3 3 5 13 10 21 10 8 0 13 -4 10 -9z m34 -13 c-3 -3 -9 2
-12 12 -6 14 -5 15 5 6 7 -7 10 -15 7 -18z m4372 -45 c-8 -5 -19 -10 -25 -10
-5 0 -3 5 5 10 8 5 20 10 25 10 6 0 3 -5 -5 -10z m77 -16 c0 -8 -5 -13 -11
-11 -6 3 -10 11 -8 18 1 8 -4 5 -13 -5 -12 -16 -15 -17 -15 -4 0 17 18 28 36
21 6 -2 11 -11 11 -19z m-4313 -3 c3 -5 -1 -11 -9 -14 -9 -4 -12 -1 -8 9 6 16
10 17 17 5z m4129 -48 c-4 -11 -3 -14 5 -9 7 4 12 3 12 -2 0 -12 -26 -23 -34
-15 -3 3 -1 14 5 24 12 23 21 25 12 2z m-3979 -32 c-8 -8 -43 -8 -38 0 2 4 13
7 24 6 10 -1 17 -3 14 -6z m3576 -141 c0 -5 -2 -10 -4 -10 -3 0 -8 5 -11 10
-3 6 -1 10 4 10 6 0 11 -4 11 -10z m-3102 -52 c-2 -7 4 -11 12 -10 8 2 11 0 7
-4 -14 -14 -65 -13 -71 2 -3 8 -1 14 4 14 6 0 10 -5 10 -11 0 -6 7 -3 16 5 19
19 25 20 22 4z m122 -22 c0 -3 -4 -8 -10 -11 -5 -3 -10 -1 -10 4 0 6 5 11 10
11 6 0 10 -2 10 -4z m2720 0 c0 -3 -4 -8 -10 -11 -5 -3 -10 -1 -10 4 0 6 5 11
10 11 6 0 10 -2 10 -4z m-61 -40 c-2 -1 -17 -10 -32 -20 -27 -16 -27 -16 -16
1 6 11 20 20 31 20 11 1 19 1 17 -1z m-289 -61 c-14 -17 -30 -20 -30 -4 0 5 4
8 9 4 5 -3 12 -1 16 5 3 5 9 10 12 10 3 0 0 -7 -7 -15z m-127 -36 c-8 -8 -13
-7 -18 2 -5 8 -4 10 3 5 7 -4 12 -2 12 5 0 7 3 9 7 6 4 -4 2 -12 -4 -18z m57
9 c0 -9 4 -8 10 2 6 9 10 10 10 3 0 -19 -17 -24 -30 -8 -9 10 -9 15 -1 15 6 0
11 -6 11 -12z m-100 -8 c0 -5 -5 -10 -11 -10 -5 0 -7 5 -4 10 3 6 8 10 11 10
2 0 4 -4 4 -10z m74 1 c3 -5 -1 -11 -9 -14 -9 -4 -12 -1 -8 9 6 16 10 17 17 5z
m-1654 -29 c0 -5 -6 -16 -13 -26 -13 -17 -14 -18 -20 -2 -4 10 -3 15 3 11 6
-3 13 1 16 9 7 17 14 21 14 8z m56 -4 c2 -2 -1 -10 -6 -18 -8 -12 -10 -12 -10
4 0 14 -3 16 -13 7 -10 -8 -14 -7 -14 3 0 12 32 15 43 4z m21 -12 c-4 -10 0
-14 14 -13 10 1 19 4 19 8 0 4 7 10 16 13 14 5 15 4 5 -8 -7 -8 -8 -16 -4 -18
4 -3 3 -3 -4 -2 -7 2 -15 -1 -18 -6 -10 -16 -45 8 -39 25 4 8 8 15 11 15 3 0
3 -6 0 -14z m163 -28 c0 -12 -6 -9 -26 13 -19 22 -19 22 4 8 12 -8 22 -17 22
-21z m30 22 c0 -5 -5 -10 -11 -10 -5 0 -7 5 -4 10 3 6 8 10 11 10 2 0 4 -4 4
-10z m30 -22 c0 -9 4 -8 10 2 5 8 10 10 10 4 0 -16 -10 -23 -26 -17 -16 6 -19
23 -4 23 6 0 10 -6 10 -12z m140 2 c0 -5 -2 -10 -4 -10 -3 0 -8 5 -11 10 -3 6
-1 10 4 10 6 0 11 -4 11 -10z m68 -21 c-2 -6 -8 -10 -13 -10 -5 0 -11 4 -13
10 -2 6 4 11 13 11 9 0 15 -5 13 -11z m512 -19 c0 -5 -4 -10 -10 -10 -5 0 -10
5 -10 10 0 6 5 10 10 10 6 0 10 -4 10 -10z"/>
<path d="M5150 9646 c0 -2 7 -9 15 -16 13 -11 14 -10 9 4 -5 14 -24 23 -24 12z"/>
<path d="M5294 9642 c3 -5 1 -12 -6 -14 -8 -3 -9 -6 -1 -11 6 -4 13 0 17 8 3
8 0 17 -6 21 -6 4 -8 3 -4 -4z"/>
<path d="M4613 9627 c0 -8 6 -14 14 -14 9 0 10 4 2 14 -6 7 -12 13 -14 13 -1
0 -2 -6 -2 -13z"/>
<path d="M4655 9623 c23 -16 38 -17 33 -1 -2 6 -15 12 -28 13 -21 2 -22 1 -5
-12z"/>
<path d="M5510 9610 c-8 -5 -12 -12 -9 -15 4 -3 12 1 19 10 14 17 11 19 -10 5z"/>
<path d="M5537 9607 c-3 -8 1 -14 8 -14 7 0 11 6 8 14 -3 7 -6 13 -8 13 -2 0
-5 -6 -8 -13z"/>
<path d="M5580 9605 c8 -11 15 -21 16 -23 1 -2 5 5 8 15 4 9 4 14 0 10 -4 -4
-14 -1 -23 6 -14 11 -15 10 -1 -8z"/>
<path d="M4273 9602 c1 -4 -2 -9 -8 -10 -5 -2 -15 -8 -22 -13 -7 -7 -12 -6
-15 3 -3 8 -6 7 -10 -3 -8 -21 29 -19 60 3 19 13 20 17 8 21 -9 4 -15 3 -13
-1z"/>
<path d="M4344 9598 c3 -14 63 -21 71 -8 3 5 12 7 20 3 8 -3 15 -1 15 4 0 5
-11 9 -24 9 -14 0 -22 -4 -20 -8 3 -4 1 -8 -5 -8 -5 0 -11 6 -14 13 -3 9 -7 9
-19 -1 -11 -9 -18 -9 -21 -2 -3 6 -5 6 -3 -2z"/>
<path d="M5626 9597 c3 -10 9 -15 12 -12 3 3 0 11 -7 18 -10 9 -11 8 -5 -6z"/>
<path d="M5663 9593 c-17 -6 -17 -20 0 -20 8 0 14 6 14 14 0 7 -1 13 -1 12 -1
0 -7 -3 -13 -6z"/>
<path d="M5690 9591 c0 -6 4 -13 10 -16 6 -3 7 1 4 9 -7 18 -14 21 -14 7z"/>
<path d="M5717 9589 c7 -9 9 -20 5 -25 -4 -4 1 -2 11 5 9 7 17 16 17 19 0 3
-3 2 -7 -1 -3 -4 -13 -1 -22 6 -14 10 -14 10 -4 -4z"/>
<path d="M4117 9566 c-3 -8 0 -17 7 -19 10 -4 12 1 9 14 -6 23 -9 24 -16 5z"/>
<path d="M4060 9555 c-7 -9 -22 -13 -34 -10 -12 3 -15 2 -8 -1 6 -3 10 -9 7
-14 -12 -19 27 -2 41 18 17 25 13 30 -6 7z"/>
<path d="M5840 9560 c-9 -6 -10 -10 -3 -10 6 0 15 5 18 10 8 12 4 12 -15 0z"/>
<path d="M5897 9547 c-3 -8 1 -14 8 -14 7 0 11 6 8 14 -3 7 -6 13 -8 13 -2 0
-5 -6 -8 -13z"/>
<path d="M6006 9527 c-16 -12 -16 -13 2 -13 10 0 19 6 19 13 0 7 -1 13 -2 13
-1 0 -9 -6 -19 -13z"/>
<path d="M3830 9497 c0 -4 -4 -6 -8 -3 -5 3 -9 -1 -9 -8 0 -7 6 -13 13 -13 7
0 11 4 8 9 -5 7 10 12 29 9 4 0 7 3 7 8 0 6 -9 9 -20 8 -11 -1 -20 -5 -20 -10z"/>
<path d="M6239 9468 c15 -21 31 -23 31 -6 0 6 -3 8 -7 5 -3 -4 -13 -1 -22 6
-14 11 -14 10 -2 -5z"/>
<path d="M6325 9441 c-7 -12 12 -24 25 -16 6 3 10 12 9 18 0 9 -2 9 -6 0 -2
-7 -9 -13 -14 -13 -6 0 -7 5 -4 10 3 6 4 10 1 10 -3 0 -7 -4 -11 -9z"/>
<path d="M6450 9406 c0 -2 11 -11 25 -20 14 -9 25 -13 25 -8 0 5 -11 14 -25
20 -14 6 -25 10 -25 8z"/>
<path d="M3416 9373 c-4 -5 -12 -8 -17 -8 -5 0 -10 -4 -11 -9 -4 -13 40 -18
48 -5 8 13 -9 32 -20 22z"/>
<path d="M6577 9353 c3 -7 6 -13 8 -13 2 0 5 6 8 13 3 8 -1 14 -8 14 -7 0 -11
-6 -8 -14z"/>
<path d="M6790 9271 c0 -5 7 -11 15 -15 8 -3 15 -1 15 3 0 5 -7 11 -15 15 -8
3 -15 1 -15 -3z"/>
<path d="M3128 9261 c-1 -5 -10 -11 -18 -13 -16 -3 -30 -18 -30 -31 0 -5 7 -1
16 8 9 9 25 13 38 10 11 -2 16 -2 9 1 -7 3 -9 12 -6 20 3 8 3 14 0 14 -3 0 -7
-4 -9 -9z"/>
<path d="M6850 9239 c0 -5 5 -7 10 -4 6 3 10 8 10 11 0 2 -4 4 -10 4 -5 0 -10
-5 -10 -11z"/>
<path d="M6965 9190 c-3 -6 1 -7 9 -4 18 7 21 14 7 14 -6 0 -13 -4 -16 -10z"/>
<path d="M7030 9156 c0 -2 7 -7 16 -10 8 -3 12 -2 9 4 -6 10 -25 14 -25 6z"/>
<path d="M2861 9124 c0 -11 3 -14 6 -6 3 7 2 16 -1 19 -3 4 -6 -2 -5 -13z"/>
<path d="M2226 8727 c3 -10 9 -15 12 -12 3 3 0 11 -7 18 -10 9 -11 8 -5 -6z"/>
<path d="M2145 8670 c-4 -6 -12 -7 -18 -3 -8 5 -8 2 0 -9 7 -8 11 -18 8 -22
-3 -3 0 -2 7 4 6 5 13 17 14 25 3 17 -2 19 -11 5z"/>
<path d="M1969 8531 c17 -11 -3 -25 -21 -15 -10 5 -10 4 -1 -6 9 -10 15 -10
26 -2 8 7 18 8 23 4 4 -4 2 1 -5 11 -7 9 -19 17 -25 17 -6 0 -5 -4 3 -9z"/>
<path d="M8000 8516 c0 -3 9 -10 20 -16 11 -6 20 -8 20 -6 0 3 -9 10 -20 16
-11 6 -20 8 -20 6z"/>
<path d="M8050 8491 c0 -6 4 -13 10 -16 6 -3 7 1 4 9 -7 18 -14 21 -14 7z"/>
<path d="M1915 8480 c-3 -5 -1 -10 5 -10 6 0 8 -5 4 -12 -4 -7 -3 -8 4 -4 6 4
9 13 5 21 -6 18 -10 19 -18 5z"/>
<path d="M8200 8336 c0 -2 11 -11 25 -20 14 -9 25 -13 25 -8 0 5 -11 14 -25
20 -14 6 -25 10 -25 8z"/>
<path d="M1700 8295 c0 -5 5 -17 10 -25 5 -8 10 -10 10 -5 0 6 -5 17 -10 25
-5 8 -10 11 -10 5z"/>
<path d="M1590 8166 c0 -2 7 -6 15 -10 8 -3 15 -1 15 4 0 6 -7 10 -15 10 -8 0
-15 -2 -15 -4z"/>
<path d="M8380 8155 c7 -8 20 -14 29 -14 13 1 13 2 -1 6 -10 2 -18 9 -18 14 0
5 -5 9 -11 9 -8 0 -8 -5 1 -15z"/>
<path d="M8450 8086 c0 -21 29 -41 41 -29 8 8 6 11 -7 10 -12 -1 -19 4 -18 16
1 9 -2 17 -7 17 -5 0 -9 -6 -9 -14z"/>
<path d="M8510 8030 c6 -11 13 -20 16 -20 2 0 0 9 -6 20 -6 11 -13 20 -16 20
-2 0 0 -9 6 -20z"/>
<path d="M8571 7956 c-9 -11 -9 -16 0 -22 7 -4 9 -3 5 4 -3 5 0 12 6 15 7 2
10 7 7 11 -3 4 -12 0 -18 -8z"/>
<path d="M8623 7872 c21 -21 34 -42 30 -46 -4 -4 0 -4 9 -1 15 6 14 10 -8 30
-14 13 -21 25 -17 27 4 3 2 3 -5 2 -7 -2 -15 3 -18 11 -4 8 -11 15 -17 15 -6
0 6 -17 26 -38z"/>
<path d="M1080 7474 c0 -8 5 -12 10 -9 6 4 8 11 5 16 -9 14 -15 11 -15 -7z"/>
<path d="M8916 7471 c-3 -5 1 -11 9 -14 9 -4 12 -1 8 9 -6 16 -10 17 -17 5z"/>
<path d="M8950 7456 c0 -2 8 -10 18 -17 15 -13 16 -12 3 4 -13 16 -21 21 -21
13z"/>
<path d="M1027 7419 c7 -7 15 -10 18 -7 3 3 -2 9 -12 12 -14 6 -15 5 -6 -5z"/>
<path d="M8955 7410 c3 -5 8 -10 11 -10 2 0 4 5 4 10 0 6 -5 10 -11 10 -5 0
-7 -4 -4 -10z"/>
<path d="M8983 7365 c0 -7 6 -11 14 -8 7 3 13 6 13 8 0 2 -6 5 -13 8 -8 3 -14
-1 -14 -8z"/>
<path d="M9046 7261 c-3 -5 1 -14 9 -21 10 -9 15 -9 15 -1 0 6 -6 11 -12 11
-9 0 -8 4 2 10 9 6 10 10 3 10 -6 0 -14 -4 -17 -9z"/>
<path d="M9127 7125 c-6 -15 10 -32 20 -21 4 3 1 6 -5 6 -6 0 -9 7 -6 15 4 8
4 15 1 15 -3 0 -7 -7 -10 -15z"/>
<path d="M750 6880 c-14 -12 -18 -20 -10 -20 11 0 11 -3 2 -12 -15 -15 -15
-28 0 -28 6 0 8 3 5 7 -4 3 1 15 10 25 14 16 27 48 19 48 -2 0 -13 -9 -26 -20z"/>
<path d="M719 6803 c9 -18 8 -22 -7 -26 -15 -4 -15 -5 0 -6 24 -2 30 13 12 35
-14 18 -15 18 -5 -3z"/>
<path d="M9316 6782 c-3 -5 1 -9 9 -9 8 0 12 4 9 9 -3 4 -7 8 -9 8 -2 0 -6 -4
-9 -8z"/>
<path d="M600 6479 c0 -5 5 -7 10 -4 6 3 10 8 10 11 0 2 -4 4 -10 4 -5 0 -10
-5 -10 -11z"/>
<path d="M580 6461 c0 -10 19 -25 25 -20 1 2 -3 10 -11 17 -8 7 -14 8 -14 3z"/>
<path d="M9405 6460 c-3 -6 1 -7 9 -4 18 7 21 14 7 14 -6 0 -13 -4 -16 -10z"/>
<path d="M568 6381 c-15 -18 -15 -20 0 -26 9 -3 13 -3 10 1 -4 4 -3 15 3 25
13 24 8 24 -13 0z"/>
<path d="M9445 6360 c-3 -6 1 -7 9 -4 18 7 21 14 7 14 -6 0 -13 -4 -16 -10z"/>
<path d="M9470 6322 c0 -5 7 -9 15 -9 8 0 12 4 9 9 -3 4 -9 8 -15 8 -5 0 -9
-4 -9 -8z"/>
<path d="M9513 6105 c0 -8 4 -12 9 -9 4 3 8 9 8 15 0 5 -4 9 -8 9 -5 0 -9 -7
-9 -15z"/>
<path d="M457 6039 c7 -7 15 -10 18 -7 3 3 -2 9 -12 12 -14 6 -15 5 -6 -5z"/>
<path d="M453 5958 c3 -9 1 -18 -6 -21 -6 -2 -4 -6 5 -10 13 -4 16 -1 13 15
-3 11 -7 23 -11 27 -4 3 -4 -2 -1 -11z"/>
<path d="M9576 5927 c3 -10 9 -15 12 -12 3 3 0 11 -7 18 -10 9 -11 8 -5 -6z"/>
<path d="M9585 5860 c-3 -6 1 -7 9 -4 18 7 21 14 7 14 -6 0 -13 -4 -16 -10z"/>
<path d="M436 5847 c-16 -12 -16 -14 -3 -14 9 0 18 6 21 14 3 7 4 13 3 13 -2
0 -11 -6 -21 -13z"/>
<path d="M427 5809 c7 -7 15 -10 18 -7 3 3 -2 9 -12 12 -14 6 -15 5 -6 -5z"/>
<path d="M9571 5798 c5 -10 13 -18 16 -18 3 0 3 3 0 7 -4 3 -3 11 3 17 6 8 3
12 -10 12 -15 0 -16 -4 -9 -18z"/>
<path d="M9606 5802 c-3 -5 1 -9 9 -9 8 0 12 4 9 9 -3 4 -7 8 -9 8 -2 0 -6 -4
-9 -8z"/>
<path d="M9616 5762 c-3 -5 1 -9 9 -9 8 0 12 4 9 9 -3 4 -7 8 -9 8 -2 0 -6 -4
-9 -8z"/>
<path d="M420 5750 c-13 -9 -13 -10 0 -10 13 0 13 -1 0 -11 -12 -8 -12 -10 -1
-7 8 2 15 12 17 21 3 20 3 19 -16 7z"/>
<path d="M410 5675 c0 -8 -5 -15 -12 -15 -6 0 -9 -2 -6 -5 9 -10 35 5 35 20 0
8 -4 15 -9 15 -4 0 -8 -7 -8 -15z"/>
<path d="M386 5602 c-3 -6 0 -12 6 -15 10 -3 10 -7 1 -19 -10 -12 -10 -15 1
-15 9 0 13 9 11 24 -3 28 -11 38 -19 25z"/>
<path d="M9610 5583 c0 -4 5 -15 10 -23 8 -13 10 -13 10 2 0 9 -4 20 -10 23
-5 3 -10 3 -10 -2z"/>
<path d="M380 5535 c0 -2 6 -8 13 -14 10 -8 14 -7 14 2 0 8 -6 14 -14 14 -7 0
-13 -1 -13 -2z"/>
<path d="M9616 5532 c-2 -4 4 -8 14 -8 10 0 16 4 14 8 -3 4 -9 8 -14 8 -5 0
-11 -4 -14 -8z"/>
<path d="M9624 5427 c1 -6 4 -16 7 -22 4 -5 5 -18 4 -28 -2 -9 1 -15 6 -11 5
3 6 10 3 16 -5 8 -1 9 12 5 14 -6 13 -2 -6 14 -17 14 -19 19 -7 15 23 -7 22 1
-2 14 -14 7 -19 6 -17 -3z"/>
<path d="M9673 5425 c0 -8 4 -12 9 -9 5 3 6 10 3 15 -9 13 -12 11 -12 -6z"/>
<path d="M367 5379 c7 -7 15 -10 18 -7 3 3 -2 9 -12 12 -14 6 -15 5 -6 -5z"/>
<path d="M370 5350 c0 -5 5 -10 11 -10 5 0 7 5 4 10 -3 6 -8 10 -11 10 -2 0
-4 -4 -4 -10z"/>
<path d="M9640 5335 c10 -12 10 -18 1 -29 -8 -10 -9 -16 -1 -21 6 -4 9 -1 8 7
-2 7 3 12 9 11 10 -2 10 3 1 22 -6 14 -16 25 -21 25 -5 0 -4 -7 3 -15z"/>
<path d="M356 5245 c-3 -8 -1 -15 4 -15 6 0 10 7 10 15 0 8 -2 15 -4 15 -2 0
-6 -7 -10 -15z"/>
<path d="M9677 5193 c-10 -9 -9 -23 1 -23 5 0 9 7 9 15 0 17 -1 18 -10 8z"/>
<path d="M9715 4969 c-4 -6 -5 -12 -2 -15 2 -3 7 2 10 11 7 17 1 20 -8 4z"/>
<path d="M9675 4880 c3 -5 8 -10 11 -10 2 0 4 5 4 10 0 6 -5 10 -11 10 -5 0
-7 -4 -4 -10z"/>
<path d="M356 4818 c3 -5 10 -6 15 -3 13 9 11 12 -6 12 -8 0 -12 -4 -9 -9z"/>
<path d="M367 4719 c7 -7 15 -10 18 -7 3 3 -2 9 -12 12 -14 6 -15 5 -6 -5z"/>
<path d="M9676 4642 c-3 -5 1 -9 9 -9 8 0 12 4 9 9 -3 4 -7 8 -9 8 -2 0 -6 -4
-9 -8z"/>
<path d="M9657 4619 c7 -7 15 -10 18 -7 3 3 -2 9 -12 12 -14 6 -15 5 -6 -5z"/>
<path d="M9670 4585 c0 -7 30 -13 34 -7 3 4 -4 9 -15 9 -10 1 -19 0 -19 -2z"/>
<path d="M376 4517 c3 -10 9 -15 12 -12 3 3 0 11 -7 18 -10 9 -11 8 -5 -6z"/>
<path d="M9640 4481 c0 -11 4 -22 9 -25 4 -3 6 6 3 19 -5 30 -12 33 -12 6z"/>
<path d="M395 4480 c3 -5 8 -10 11 -10 2 0 4 5 4 10 0 6 -5 10 -11 10 -5 0 -7
-4 -4 -10z"/>
<path d="M9695 4451 c-3 -5 -2 -12 3 -15 5 -3 9 1 9 9 0 17 -3 19 -12 6z"/>
<path d="M386 4438 c3 -5 10 -6 15 -3 13 9 11 12 -6 12 -8 0 -12 -4 -9 -9z"/>
<path d="M398 4353 c7 -3 16 -2 19 1 4 3 -2 6 -13 5 -11 0 -14 -3 -6 -6z"/>
<path d="M9620 4322 c0 -4 9 -13 20 -20 19 -12 20 -11 8 8 -13 20 -28 27 -28
12z"/>
<path d="M413 4305 c0 -8 6 -16 14 -19 11 -4 11 -1 3 14 -13 24 -17 25 -17 5z"/>
<path d="M9675 4271 c-3 -5 -2 -12 3 -15 5 -3 9 1 9 9 0 17 -3 19 -12 6z"/>
<path d="M9637 4256 c-17 -13 -17 -14 0 -20 10 -4 14 -4 10 0 -4 4 -2 13 4 21
14 17 9 16 -14 -1z"/>
<path d="M9590 4230 c-13 -8 -12 -10 3 -10 9 0 17 5 17 10 0 12 -1 12 -20 0z"/>
<path d="M9580 4203 c0 -19 14 -22 35 -7 10 8 14 14 8 14 -7 0 -15 -5 -19 -11
-4 -8 -9 -7 -15 2 -6 10 -9 10 -9 2z"/>
<path d="M9636 4195 c-11 -8 -15 -15 -9 -15 6 0 16 7 23 15 16 19 11 19 -14 0z"/>
<path d="M9577 4156 c-10 -25 33 -50 47 -27 4 5 -2 7 -13 4 -10 -3 -22 1 -27
8 -5 9 -2 10 11 5 15 -5 16 -4 5 9 -15 18 -17 18 -23 1z"/>
<path d="M9616 4159 c4 -8 30 -6 38 2 3 3 -5 5 -19 5 -13 0 -22 -3 -19 -7z"/>
<path d="M449 4148 c-5 -18 -6 -38 -1 -34 7 8 12 36 6 36 -2 0 -4 -1 -5 -2z"/>
<path d="M9590 4080 c0 -5 9 -8 20 -7 21 1 18 10 -5 13 -8 1 -15 -2 -15 -6z"/>
<path d="M9565 4054 c3 -34 16 -46 35 -33 12 9 12 10 -4 5 -14 -5 -17 -2 -12
9 4 11 2 14 -6 9 -8 -5 -9 -2 -5 9 3 9 2 19 -3 22 -4 3 -7 -6 -5 -21z"/>
<path d="M470 3999 c0 -5 5 -7 10 -4 6 3 10 8 10 11 0 2 -4 4 -10 4 -5 0 -10
-5 -10 -11z"/>
<path d="M9597 3995 c-8 -8 -17 -12 -21 -10 -3 3 -4 2 -1 -2 3 -4 13 -8 21 -9
9 -1 13 0 10 3 -3 4 -1 12 5 20 15 18 4 17 -14 -2z"/>
<path d="M9615 3929 c-4 -6 -5 -12 -2 -15 2 -3 7 2 10 11 7 17 1 20 -8 4z"/>
<path d="M9585 3880 c10 -11 20 -20 23 -20 3 0 -3 9 -13 20 -10 11 -20 20 -23
20 -3 0 3 -9 13 -20z"/>
<path d="M497 3879 c7 -7 15 -10 18 -7 3 3 -2 9 -12 12 -14 6 -15 5 -6 -5z"/>
<path d="M9547 3813 c4 -9 9 -10 18 -3 6 5 15 8 18 5 4 -3 5 -2 2 2 -10 13
-43 10 -38 -4z"/>
<path d="M535 3749 c-4 -6 -5 -12 -2 -15 2 -3 7 2 10 11 7 17 1 20 -8 4z"/>
<path d="M9494 3658 c-4 -5 -3 -12 0 -15 3 -4 6 -1 6 6 0 7 4 10 9 6 5 -3 12
-2 15 3 3 5 -2 9 -10 9 -8 0 -17 -4 -20 -9z"/>
<path d="M9438 3593 c6 -2 12 -9 12 -14 0 -6 -4 -8 -8 -5 -5 3 -9 -1 -9 -8 0
-11 4 -12 18 -3 13 8 15 15 7 24 -6 7 -16 13 -22 12 -7 0 -6 -2 2 -6z"/>
<path d="M9509 3577 c6 -8 7 -18 3 -22 -4 -5 -1 -5 6 -1 10 6 10 11 1 22 -6 8
-14 14 -16 14 -3 0 0 -6 6 -13z"/>
<path d="M9482 3558 c-15 -15 -15 -28 0 -28 6 0 8 3 5 7 -4 3 -2 12 4 20 14
16 7 17 -9 1z"/>
<path d="M9486 3498 c3 -5 10 -6 15 -3 13 9 11 12 -6 12 -8 0 -12 -4 -9 -9z"/>
<path d="M610 3482 c0 -5 7 -9 15 -9 8 0 12 4 9 9 -3 4 -9 8 -15 8 -5 0 -9 -4
-9 -8z"/>
<path d="M9430 3481 c0 -10 19 -25 25 -20 1 2 -3 10 -11 17 -8 7 -14 8 -14 3z"/>
<path d="M9421 3404 c0 -11 3 -14 6 -6 3 7 2 16 -1 19 -3 4 -6 -2 -5 -13z"/>
<path d="M9404 3366 c-14 -11 -16 -18 -8 -26 9 -9 14 -9 19 1 5 8 4 10 -3 5
-19 -11 -14 5 6 20 9 7 14 14 11 14 -3 0 -14 -6 -25 -14z"/>
<path d="M9366 3318 c3 -4 9 -8 15 -8 5 0 9 4 9 8 0 5 -7 9 -15 9 -8 0 -12 -4
-9 -9z"/>
<path d="M9414 3276 c1 -8 5 -18 8 -22 4 -3 5 1 4 10 -1 8 -5 18 -8 22 -4 3
-5 -1 -4 -10z"/>
<path d="M697 3249 c4 -13 8 -18 11 -10 2 7 -1 18 -6 23 -8 8 -9 4 -5 -13z"/>
<path d="M715 3219 c-6 -8 -4 -10 5 -4 10 6 12 4 6 -11 -6 -15 -5 -17 5 -6 9
9 10 15 2 23 -8 8 -13 7 -18 -2z"/>
<path d="M9350 3209 c0 -5 5 -7 10 -4 6 3 10 8 10 11 0 2 -4 4 -10 4 -5 0 -10
-5 -10 -11z"/>
<path d="M9319 3168 c15 -21 31 -23 31 -6 0 6 -3 8 -7 5 -3 -4 -13 -1 -22 6
-14 11 -14 10 -2 -5z"/>
<path d="M746 3143 c-6 -14 -5 -15 5 -6 7 7 10 15 7 18 -3 3 -9 -2 -12 -12z"/>
<path d="M9313 3143 c4 -6 2 -13 -5 -15 -8 -3 -6 -6 4 -10 17 -7 19 15 3 29
-4 4 -5 3 -2 -4z"/>
<path d="M9295 3099 c-4 -6 -5 -12 -2 -15 2 -3 7 2 10 11 7 17 1 20 -8 4z"/>
<path d="M9315 3091 c-3 -5 -2 -12 3 -15 5 -3 9 1 9 9 0 17 -3 19 -12 6z"/>
<path d="M9276 3067 c3 -10 9 -15 12 -12 3 3 0 11 -7 18 -10 9 -11 8 -5 -6z"/>
<path d="M9276 3013 c-6 -14 -5 -15 5 -6 7 7 10 15 7 18 -3 3 -9 -2 -12 -12z"/>
<path d="M9209 2999 c-13 -12 -17 -19 -9 -17 8 3 23 1 34 -4 14 -8 17 -7 11 3
-6 9 -3 11 9 6 10 -4 15 -3 11 4 -4 5 -16 7 -28 3 -19 -6 -20 -5 -8 10 19 23
9 20 -20 -5z"/>
<path d="M813 2975 c0 -8 4 -12 9 -9 5 3 6 10 3 15 -9 13 -12 11 -12 -6z"/>
<path d="M9182 2954 c-11 -12 -10 -15 2 -20 9 -3 13 -11 10 -16 -4 -6 3 -5 15
2 18 9 21 30 5 30 -3 0 -2 -5 2 -11 4 -7 1 -10 -7 -7 -8 3 -13 12 -11 22 3 19
1 20 -16 0z"/>
<path d="M9210 2966 c0 -2 7 -7 16 -10 8 -3 12 -2 9 4 -6 10 -25 14 -25 6z"/>
<path d="M9256 2962 c-3 -5 1 -9 9 -9 8 0 12 4 9 9 -3 4 -7 8 -9 8 -2 0 -6 -4
-9 -8z"/>
<path d="M9242 2919 c-7 -11 -18 -17 -25 -13 -7 4 -8 3 -4 -1 4 -5 15 -10 23
-11 9 -1 13 0 10 3 -3 4 -1 12 6 20 6 7 9 15 7 18 -3 2 -10 -5 -17 -16z"/>
<path d="M853 2889 c-2 -23 3 -25 10 -4 4 8 3 16 -1 19 -4 3 -9 -4 -9 -15z"/>
<path d="M9197 2883 c-13 -12 -7 -23 11 -22 10 0 12 3 4 6 -6 2 -10 9 -6 14 6
10 0 12 -9 2z"/>
<path d="M9119 2832 c-11 -14 -11 -15 0 -5 7 6 20 9 27 6 8 -3 14 -3 14 0 0
14 -30 14 -41 -1z"/>
<path d="M9170 2842 c0 -4 11 -8 25 -8 28 0 24 8 -5 13 -11 2 -20 -1 -20 -5z"/>
<path d="M908 2813 c7 -3 16 -2 19 1 4 3 -2 6 -13 5 -11 0 -14 -3 -6 -6z"/>
<path d="M9125 2812 c-5 -4 -17 -16 -25 -27 -11 -15 -7 -14 15 5 17 14 32 26
34 28 2 1 0 2 -5 2 -5 0 -13 -4 -19 -8z"/>
<path d="M9137 2794 c-4 -4 -4 -11 -1 -15 7 -12 34 -11 34 1 0 5 -7 6 -17 3
-11 -4 -14 -3 -9 5 8 13 3 16 -7 6z"/>
<path d="M9170 2739 c0 -5 5 -7 10 -4 6 3 10 8 10 11 0 2 -4 4 -10 4 -5 0 -10
-5 -10 -11z"/>
<path d="M9080 2670 c6 -11 12 -20 14 -20 2 0 2 9 -1 20 -3 11 -9 20 -15 20
-5 0 -4 -9 2 -20z"/>
<path d="M9140 2675 c-19 -22 -8 -25 13 -3 9 10 13 18 8 18 -5 0 -14 -7 -21
-15z"/>
<path d="M9070 2641 c0 -6 4 -13 10 -16 6 -3 7 1 4 9 -7 18 -14 21 -14 7z"/>
<path d="M9107 2619 c7 -7 15 -10 18 -7 3 3 -2 9 -12 12 -14 6 -15 5 -6 -5z"/>
<path d="M8985 2610 c-3 -5 -1 -10 4 -10 6 0 11 5 11 10 0 6 -2 10 -4 10 -3 0
-8 -4 -11 -10z"/>
<path d="M9025 2560 c3 -5 8 -10 11 -10 2 0 4 5 4 10 0 6 -5 10 -11 10 -5 0
-7 -4 -4 -10z"/>
<path d="M9050 2506 c0 -2 7 -7 16 -10 8 -3 12 -2 9 4 -6 10 -25 14 -25 6z"/>
<path d="M8986 2438 c3 -5 10 -6 15 -3 13 9 11 12 -6 12 -8 0 -12 -4 -9 -9z"/>
<path d="M8931 2433 c-1 -17 16 -25 25 -12 4 7 3 9 -4 5 -5 -3 -13 0 -15 6 -4
9 -6 10 -6 1z"/>
<path d="M8873 2410 c-1 -11 2 -20 7 -20 4 0 7 7 6 15 -3 23 -12 26 -13 5z"/>
<path d="M8905 2419 c-4 -6 -5 -12 -2 -15 2 -3 7 2 10 11 7 17 1 20 -8 4z"/>
<path d="M8993 2405 c0 -8 4 -12 9 -9 5 3 6 10 3 15 -9 13 -12 11 -12 -6z"/>
<path d="M1165 2401 c-3 -5 -2 -12 3 -15 5 -3 9 1 9 9 0 17 -3 19 -12 6z"/>
<path d="M1175 2360 c3 -5 8 -10 11 -10 2 0 4 5 4 10 0 6 -5 10 -11 10 -5 0
-7 -4 -4 -10z"/>
<path d="M1195 2340 c-3 -5 -1 -10 4 -10 6 0 11 5 11 10 0 6 -2 10 -4 10 -3 0
-8 -4 -11 -10z"/>
<path d="M8895 2339 c-4 -6 -5 -12 -2 -15 2 -3 7 2 10 11 7 17 1 20 -8 4z"/>
<path d="M8920 2335 c-7 -9 -11 -17 -9 -20 3 -2 10 5 17 15 14 24 10 26 -8 5z"/>
<path d="M8840 2276 c0 -8 4 -17 9 -20 5 -4 7 3 4 14 -6 23 -13 26 -13 6z"/>
<path d="M1276 2223 c6 -4 14 -15 17 -23 5 -11 6 -9 4 4 -1 11 -9 21 -17 23
-10 3 -11 2 -4 -4z"/>
<path d="M8775 2221 c-9 -8 -5 -31 5 -31 5 0 6 7 3 17 -4 9 -2 14 3 10 6 -3
16 -2 24 3 11 7 9 9 -8 7 -13 -1 -25 -3 -27 -6z"/>
<path d="M8836 2218 c3 -5 10 -6 15 -3 13 9 11 12 -6 12 -8 0 -12 -4 -9 -9z"/>
<path d="M8724 2205 c3 -23 22 -37 42 -32 15 4 14 5 -4 6 -13 0 -21 5 -18 10
3 5 -1 14 -8 20 -11 10 -14 9 -12 -4z"/>
<path d="M1316 2192 c-3 -5 1 -15 8 -21 11 -10 14 -9 12 3 -3 21 -13 29 -20
18z"/>
<path d="M8826 2158 c3 -4 9 -8 15 -8 5 0 9 4 9 8 0 5 -7 9 -15 9 -8 0 -12 -4
-9 -9z"/>
<path d="M1335 2140 c3 -5 11 -10 16 -10 6 0 7 5 4 10 -3 6 -11 10 -16 10 -6
0 -7 -4 -4 -10z"/>
<path d="M8735 2120 c3 -5 8 -10 11 -10 2 0 4 5 4 10 0 6 -5 10 -11 10 -5 0
-7 -4 -4 -10z"/>
<path d="M8670 2100 c0 -5 5 -10 10 -10 6 0 10 5 10 10 0 6 -4 10 -10 10 -5 0
-10 -4 -10 -10z"/>
<path d="M8735 2089 c-4 -6 -5 -12 -2 -15 2 -3 7 2 10 11 7 17 1 20 -8 4z"/>
<path d="M8695 2080 c-3 -6 1 -7 9 -4 18 7 21 14 7 14 -6 0 -13 -4 -16 -10z"/>
<path d="M8650 2040 c0 -5 5 -10 10 -10 6 0 10 5 10 10 0 6 -4 10 -10 10 -5 0
-10 -4 -10 -10z"/>
<path d="M8710 2040 c0 -5 5 -10 11 -10 5 0 7 5 4 10 -3 6 -8 10 -11 10 -2 0
-4 -4 -4 -10z"/>
<path d="M1416 2031 c-4 -5 3 -7 14 -4 11 3 20 0 20 -6 0 -6 5 -11 11 -11 8 0
8 5 -1 15 -14 17 -36 20 -44 6z"/>
<path d="M8597 1983 c15 -3 20 -9 17 -21 -5 -14 -4 -14 4 -2 14 19 6 30 -21
29 l-22 -2 22 -4z"/>
<path d="M8541 1971 c-9 -6 -10 -11 -2 -15 13 -8 31 1 31 15 0 11 -11 11 -29
0z"/>
<path d="M8514 1937 c-4 -7 -3 -8 1 -4 5 4 15 -3 21 -15 l13 -23 -2 22 c-1 26
-23 38 -33 20z"/>
<path d="M8574 1942 c3 -5 2 -12 -4 -14 -5 -2 -6 -9 -1 -16 6 -10 10 -9 14 7
3 12 0 24 -5 28 -6 3 -8 1 -4 -5z"/>
<path d="M8593 1905 c0 -8 4 -12 9 -9 5 3 6 10 3 15 -9 13 -12 11 -12 -6z"/>
<path d="M8491 1887 c2 -1 13 -9 24 -17 19 -14 19 -14 6 3 -7 9 -18 17 -24 17
-6 0 -8 -1 -6 -3z"/>
<path d="M8421 1846 c-8 -10 -4 -16 14 -24 21 -10 27 -9 32 3 10 28 -27 44
-46 21z m39 -12 c0 -8 -6 -11 -15 -8 -8 4 -15 9 -15 13 0 4 7 8 15 8 8 0 15
-6 15 -13z"/>
<path d="M8531 1851 c-8 -5 -9 -11 -3 -15 5 -3 12 1 16 9 6 17 6 18 -13 6z"/>
<path d="M8492 1800 c0 -14 2 -19 5 -12 2 6 2 18 0 25 -3 6 -5 1 -5 -13z"/>
<path d="M8425 1787 c-14 -11 -15 -16 -5 -22 9 -6 11 -4 5 5 -6 10 -4 12 9 7
11 -5 15 -3 10 5 -5 8 -2 9 10 5 10 -4 15 -3 11 3 -8 13 -18 13 -40 -3z"/>
<path d="M1666 1767 c3 -10 9 -15 12 -12 3 3 0 11 -7 18 -10 9 -11 8 -5 -6z"/>
<path d="M8383 1772 c-9 -6 -7 -11 7 -20 12 -7 20 -8 20 -2 0 5 -5 10 -11 10
-5 0 -7 5 -4 10 7 12 4 12 -12 2z"/>
<path d="M8436 1733 c-6 -14 -5 -15 5 -6 7 7 10 15 7 18 -3 3 -9 -2 -12 -12z"/>
<path d="M8359 1700 c-1 -5 -2 -18 -3 -27 -1 -10 -5 -25 -10 -33 -7 -12 -6
-13 4 -3 13 12 24 73 14 73 -2 0 -5 -4 -5 -10z"/>
<path d="M8385 1660 c-3 -6 1 -7 9 -4 18 7 21 14 7 14 -6 0 -13 -4 -16 -10z"/>
<path d="M8235 1650 c-3 -5 -1 -10 4 -10 6 0 11 5 11 10 0 6 -2 10 -4 10 -3 0
-8 -4 -11 -10z"/>
<path d="M8294 1619 c-3 -6 -3 -13 0 -16 3 -4 6 -1 6 5 0 6 7 9 15 6 8 -4 15
-4 15 -1 0 11 -30 16 -36 6z"/>
<path d="M1870 1574 c0 -9 -5 -12 -12 -8 -7 4 -8 3 -4 -5 6 -9 11 -9 22 0 7 6
11 15 8 20 -8 14 -14 11 -14 -7z"/>
<path d="M8230 1580 c0 -5 5 -10 10 -10 6 0 10 5 10 10 0 6 -4 10 -10 10 -5 0
-10 -4 -10 -10z"/>
<path d="M8256 1562 c-3 -5 1 -9 9 -9 8 0 12 4 9 9 -3 4 -7 8 -9 8 -2 0 -6 -4
-9 -8z"/>
<path d="M1910 1540 c0 -5 5 -10 11 -10 5 0 7 5 4 10 -3 6 -8 10 -11 10 -2 0
-4 -4 -4 -10z"/>
<path d="M8212 1545 c4 -4 1 -13 -8 -20 -14 -10 -14 -12 3 -25 14 -11 16 -11
6 0 -10 10 -9 16 4 25 13 10 14 13 2 20 -8 5 -11 5 -7 0z"/>
<path d="M8159 1488 c-4 -12 -5 -57 0 -53 6 6 10 55 4 55 -1 0 -3 -1 -4 -2z"/>
<path d="M8050 1440 c0 -5 5 -10 10 -10 6 0 10 5 10 10 0 6 -4 10 -10 10 -5 0
-10 -4 -10 -10z"/>
<path d="M8025 1429 c-4 -6 -5 -12 -2 -15 2 -3 7 2 10 11 7 17 1 20 -8 4z"/>
<path d="M8037 1405 c-4 -8 -3 -16 1 -19 4 -3 9 4 9 15 2 23 -3 25 -10 4z"/>
<path d="M8066 1403 c-6 -14 -5 -15 5 -6 7 7 10 15 7 18 -3 3 -9 -2 -12 -12z"/>
<path d="M8014 1382 c3 -5 2 -12 -4 -14 -5 -2 -6 -9 -1 -16 6 -10 10 -9 14 7
3 12 0 24 -5 28 -6 3 -8 1 -4 -5z"/>
<path d="M8080 1380 c-9 -6 -10 -10 -3 -10 6 0 15 5 18 10 8 12 4 12 -15 0z"/>
<path d="M2103 1363 c-3 -10 -8 -22 -11 -27 -3 -5 0 -6 6 -2 7 4 12 14 12 22
0 8 5 12 10 9 6 -4 8 -10 5 -15 -3 -5 0 -12 6 -15 5 -4 8 -13 5 -21 -7 -19 -4
-18 16 5 15 18 14 20 -13 40 -27 20 -30 21 -36 4z"/>
<path d="M8035 1361 c-3 -5 -2 -12 3 -15 5 -3 9 1 9 9 0 17 -3 19 -12 6z"/>
<path d="M7952 1325 c4 -4 0 -14 -10 -22 -15 -13 -15 -13 6 -3 12 6 27 8 32 5
6 -3 10 -4 10 -1 0 3 -10 11 -22 17 -13 6 -20 8 -16 4z"/>
<path d="M2193 1295 c-3 -9 -3 -18 -1 -21 3 -3 8 4 11 16 6 23 -1 27 -10 5z"/>
<path d="M7820 1280 c0 -5 5 -10 11 -10 5 0 7 5 4 10 -3 6 -8 10 -11 10 -2 0
-4 -4 -4 -10z"/>
<path d="M7913 1247 c0 -8 6 -14 14 -14 9 0 10 4 2 14 -6 7 -12 13 -14 13 -1
0 -2 -6 -2 -13z"/>
<path d="M7830 1229 c0 -5 -6 -7 -12 -3 -7 4 -9 3 -5 -1 11 -13 38 -15 30 -2
-4 7 0 8 11 4 10 -4 15 -3 11 3 -8 13 -35 13 -35 -1z"/>
<path d="M2291 1225 c0 -5 7 -19 16 -30 14 -18 15 -18 9 -2 -4 13 -2 17 6 14
7 -2 12 -13 10 -23 -2 -16 -1 -17 7 -4 7 10 11 11 11 3 0 -7 5 -13 12 -13 6 0
-1 14 -17 30 -19 19 -31 26 -36 19 -4 -8 -8 -7 -12 2 -3 8 -6 10 -6 4z"/>
<path d="M7780 1200 c18 -12 30 -13 30 -2 0 4 -10 9 -22 9 -18 2 -20 0 -8 -7z"/>
<path d="M7743 1188 c-9 -16 -16 -54 -7 -46 3 3 7 14 9 25 2 10 4 19 4 21 1 1
10 -2 21 -8 11 -6 20 -8 20 -6 0 3 -9 10 -19 16 -15 7 -22 7 -28 -2z"/>
<path d="M7760 1166 c0 -2 8 -10 18 -17 15 -13 16 -12 3 4 -13 16 -21 21 -21
13z"/>
<path d="M2353 1145 c0 -8 4 -12 9 -9 5 3 6 10 3 15 -9 13 -12 11 -12 -6z"/>
<path d="M7835 1149 c-4 -6 -5 -12 -2 -15 2 -3 7 2 10 11 7 17 1 20 -8 4z"/>
<path d="M7577 1120 c-3 -11 -1 -20 4 -20 5 0 9 5 9 11 0 5 6 7 13 3 8 -5 8
-2 -2 9 -17 21 -18 21 -24 -3z"/>
<path d="M7660 1126 c0 -2 11 -6 25 -8 13 -3 22 -1 19 3 -5 9 -44 13 -44 5z"/>
<path d="M7640 1111 c0 -7 -5 -9 -10 -6 -6 3 -13 -1 -16 -9 -3 -9 -10 -13 -15
-10 -5 3 -9 0 -9 -5 0 -16 20 -13 26 4 4 8 10 13 14 10 10 -6 24 14 16 22 -3
4 -6 1 -6 -6z"/>
<path d="M2470 1100 c0 -5 7 -10 16 -10 8 0 12 5 9 10 -3 6 -10 10 -16 10 -5
0 -9 -4 -9 -10z"/>
<path d="M7558 1083 c7 -3 16 -2 19 1 4 3 -2 6 -13 5 -11 0 -14 -3 -6 -6z"/>
<path d="M2519 1078 c-4 -19 -9 -51 -6 -47 1 2 8 11 15 21 9 11 10 18 2 23 -5
3 -10 5 -11 3z"/>
<path d="M7540 1061 c0 -6 9 -8 21 -6 17 3 20 0 16 -15 -3 -12 -1 -17 4 -14
17 10 5 37 -18 40 -13 2 -23 0 -23 -5z"/>
<path d="M7633 1053 c0 -9 4 -10 14 -2 7 6 13 12 13 14 0 1 -6 2 -13 2 -8 0
-14 -6 -14 -14z"/>
<path d="M7517 1045 c-4 -8 -3 -16 1 -19 4 -3 9 4 9 15 2 23 -3 25 -10 4z"/>
<path d="M7471 1009 c-13 -10 -18 -19 -13 -19 6 0 14 5 17 10 4 6 10 8 15 5 5
-3 11 -1 14 4 12 19 -10 19 -33 0z"/>
<path d="M7610 1019 c0 -5 5 -7 10 -4 6 3 10 8 10 11 0 2 -4 4 -10 4 -5 0 -10
-5 -10 -11z"/>
<path d="M2631 992 c-7 -14 -6 -19 4 -19 7 0 11 7 7 15 -4 11 -1 13 8 7 9 -5
11 -4 6 3 -10 16 -14 15 -25 -6z"/>
<path d="M7515 1000 c-3 -5 -1 -10 4 -10 6 0 11 5 11 10 0 6 -2 10 -4 10 -3 0
-8 -4 -11 -10z"/>
<path d="M7472 960 c0 -14 2 -19 5 -12 2 6 2 18 0 25 -3 6 -5 1 -5 -13z"/>
<path d="M7316 962 c-2 -4 4 -13 15 -20 22 -14 25 -7 5 14 -8 8 -17 11 -20 6z"/>
<path d="M7393 963 c4 -3 0 -11 -7 -17 -10 -8 -11 -17 -5 -31 9 -19 9 -19 5 2
-2 12 2 24 10 27 17 7 19 26 2 26 -6 0 -8 -3 -5 -7z"/>
<path d="M7420 946 c0 -2 9 -6 20 -9 11 -3 18 -1 14 4 -5 9 -34 13 -34 5z"/>
<path d="M7415 920 c3 -5 8 -10 11 -10 2 0 4 5 4 10 0 6 -5 10 -11 10 -5 0 -7
-4 -4 -10z"/>
<path d="M7350 909 c0 -5 -5 -7 -12 -3 -7 4 -8 3 -4 -5 6 -9 11 -9 22 0 17 14
18 19 4 19 -5 0 -10 -5 -10 -11z"/>
<path d="M2810 901 c0 -5 5 -13 10 -16 6 -3 10 -2 10 4 0 5 -4 13 -10 16 -5 3
-10 2 -10 -4z"/>
<path d="M2790 889 c0 -5 -6 -7 -12 -3 -7 4 -9 3 -5 -1 13 -15 36 -14 30 1 -6
17 -13 18 -13 3z"/>
<path d="M2735 880 c-3 -5 -1 -10 4 -10 6 0 11 5 11 10 0 6 -2 10 -4 10 -3 0
-8 -4 -11 -10z"/>
<path d="M2842 878 c-16 -16 -15 -25 2 -25 8 0 12 6 8 15 -4 11 -1 13 8 7 9
-5 11 -4 6 3 -9 15 -9 15 -24 0z"/>
<path d="M7260 880 c-9 -6 -10 -10 -3 -10 6 0 15 5 18 10 8 12 4 12 -15 0z"/>
<path d="M7152 848 c7 -15 15 -23 17 -17 2 6 -4 18 -13 27 -15 15 -15 15 -4
-10z"/>
<path d="M7266 845 c-9 -14 -15 -25 -13 -25 2 0 13 11 25 25 12 14 18 25 13
25 -5 0 -16 -11 -25 -25z"/>
<path d="M7316 858 c3 -5 10 -6 15 -3 13 9 11 12 -6 12 -8 0 -12 -4 -9 -9z"/>
<path d="M7230 845 c0 -8 2 -15 4 -15 2 0 6 7 10 15 3 8 1 15 -4 15 -6 0 -10
-7 -10 -15z"/>
<path d="M2910 840 c0 -5 5 -10 11 -10 5 0 7 5 4 10 -3 6 -8 10 -11 10 -2 0
-4 -4 -4 -10z"/>
<path d="M7290 839 c0 -5 5 -7 10 -4 6 3 10 8 10 11 0 2 -4 4 -10 4 -5 0 -10
-5 -10 -11z"/>
<path d="M7190 830 c0 -5 5 -10 11 -10 5 0 7 5 4 10 -3 6 -8 10 -11 10 -2 0
-4 -4 -4 -10z"/>
<path d="M2950 820 c0 -5 5 -10 10 -10 6 0 10 5 10 10 0 6 -4 10 -10 10 -5 0
-10 -4 -10 -10z"/>
<path d="M2930 811 c0 -6 4 -13 10 -16 6 -3 7 1 4 9 -7 18 -14 21 -14 7z"/>
<path d="M7209 804 c-11 -14 -24 -52 -14 -42 2 1 3 6 2 9 -1 4 7 16 17 28 11
12 17 21 14 21 -3 0 -12 -7 -19 -16z"/>
<path d="M7236 793 c-6 -14 -5 -15 5 -6 7 7 10 15 7 18 -3 3 -9 -2 -12 -12z"/>
<path d="M6973 785 c-11 -8 -24 -11 -28 -7 -5 4 -5 1 -1 -6 5 -7 10 -11 13 -8
3 3 13 1 22 -4 10 -5 23 -5 32 1 12 8 12 10 -1 8 -31 -3 -44 3 -20 10 14 4 20
10 14 14 -6 3 -20 0 -31 -8z"/>
<path d="M7133 776 c-3 -5 -1 -6 5 -2 5 3 12 2 14 -3 1 -5 9 -3 15 4 10 11 9
13 -8 12 -11 -1 -23 -6 -26 -11z"/>
<path d="M3015 760 c3 -5 8 -10 11 -10 2 0 4 5 4 10 0 6 -5 10 -11 10 -5 0 -7
-4 -4 -10z"/>
<path d="M7100 760 c-9 -6 -10 -10 -3 -10 6 0 15 5 18 10 8 12 4 12 -15 0z"/>
<path d="M3047 739 c7 -7 15 -10 18 -7 3 3 -2 9 -12 12 -14 6 -15 5 -6 -5z"/>
<path d="M3126 734 c-8 -22 -4 -25 11 -9 7 8 9 16 4 19 -5 3 -12 -1 -15 -10z"/>
<path d="M6950 740 c0 -5 7 -7 15 -4 11 5 14 1 9 -12 -5 -15 -4 -16 4 -4 6 8
8 18 6 22 -7 11 -34 10 -34 -2z"/>
<path d="M7014 743 c4 -7 3 -13 -1 -13 -5 0 -14 -10 -22 -22 -10 -18 -11 -20
0 -10 16 15 33 16 23 0 -4 -6 -3 -8 3 -5 11 7 10 43 -2 54 -4 5 -5 2 -1 -4z"/>
<path d="M6820 729 c0 -7 -8 -22 -17 -33 -18 -21 -18 -21 5 -2 23 20 31 9 10
-12 -17 -17 2 -32 27 -21 18 9 18 9 -2 5 -28 -5 -28 -1 -5 29 18 22 20 23 35
7 10 -9 17 -11 17 -5 0 9 -21 23 -40 27 -3 1 -11 5 -17 9 -8 5 -13 3 -13 -4z"/>
<path d="M3210 695 c-11 -13 -15 -13 -21 -3 -6 9 -9 9 -9 1 0 -6 3 -14 8 -17
9 -5 48 22 40 29 -3 3 -11 -2 -18 -10z"/>
<path d="M6950 703 c0 -6 8 -17 18 -24 16 -13 16 -13 2 6 -8 11 -16 22 -17 24
-2 2 -3 0 -3 -6z"/>
<path d="M6850 686 c0 -2 7 -7 16 -10 8 -3 12 -2 9 4 -6 10 -25 14 -25 6z"/>
<path d="M6913 672 c-8 -14 -8 -19 1 -19 7 0 13 9 13 19 2 23 1 23 -14 0z"/>
<path d="M3260 666 c0 -2 7 -7 16 -10 8 -3 12 -2 9 4 -6 10 -25 14 -25 6z"/>
<path d="M6790 665 c0 -5 5 -17 10 -25 5 -8 10 -10 10 -5 0 6 -5 17 -10 25 -5
8 -10 11 -10 5z"/>
<path d="M3190 641 c0 -6 4 -13 10 -16 6 -3 7 1 4 9 -7 18 -14 21 -14 7z"/>
<path d="M3245 640 c-3 -6 1 -7 9 -4 18 7 21 14 7 14 -6 0 -13 -4 -16 -10z"/>
<path d="M3375 640 c3 -5 8 -10 11 -10 2 0 4 5 4 10 0 6 -5 10 -11 10 -5 0 -7
-4 -4 -10z"/>
<path d="M6760 639 c0 -5 5 -7 10 -4 6 3 10 8 10 11 0 2 -4 4 -10 4 -5 0 -10
-5 -10 -11z"/>
<path d="M6710 631 c0 -5 5 -13 10 -16 6 -3 10 -2 10 4 0 5 -4 13 -10 16 -5 3
-10 2 -10 -4z"/>
<path d="M3340 626 c0 -2 9 -6 20 -9 11 -3 18 -1 14 4 -5 9 -34 13 -34 5z"/>
<path d="M6815 609 c-4 -6 -5 -12 -2 -15 2 -3 7 2 10 11 7 17 1 20 -8 4z"/>
<path d="M6526 602 c-2 -4 -1 -14 4 -22 7 -11 9 -9 7 8 -1 24 -3 26 -11 14z"/>
<path d="M6690 606 c0 -2 7 -7 16 -10 8 -3 12 -2 9 4 -6 10 -25 14 -25 6z"/>
<path d="M6735 600 c-4 -6 -1 -9 7 -8 7 2 12 -3 10 -10 -1 -8 2 -11 8 -7 8 5
7 11 -1 21 -14 17 -16 17 -24 4z"/>
<path d="M3373 585 c0 -8 4 -12 9 -9 5 3 6 10 3 15 -9 13 -12 11 -12 -6z"/>
<path d="M6452 572 c-17 -17 -20 -18 -30 -3 -8 11 -8 8 0 -12 11 -27 12 -28
23 -7 6 11 14 18 17 15 3 -3 8 1 11 10 8 20 1 19 -21 -3z"/>
<path d="M6579 588 c-4 -15 -6 -50 -3 -40 3 6 11 9 17 5 7 -4 5 2 -3 12 -14
17 -13 18 3 12 9 -3 17 -2 17 3 0 8 -28 15 -31 8z"/>
<path d="M6551 564 c0 -11 3 -14 6 -6 3 7 2 16 -1 19 -3 4 -6 -2 -5 -13z"/>
<path d="M6480 556 c0 -9 -4 -15 -9 -12 -5 3 -16 -5 -25 -18 -13 -20 -13 -25
-1 -30 10 -3 12 0 8 11 -4 11 -2 14 5 9 8 -5 10 -1 5 10 -4 12 -3 15 5 10 13
-8 29 20 18 31 -3 4 -6 -1 -6 -11z"/>
<path d="M6655 561 c-3 -5 -2 -12 3 -15 5 -3 9 1 9 9 0 17 -3 19 -12 6z"/>
<path d="M6385 549 c4 -5 1 -16 -5 -24 -9 -11 -9 -15 -1 -15 6 0 11 4 11 10 0
5 6 8 13 6 6 -1 9 -1 4 1 -4 3 -5 8 -2 13 3 4 -2 11 -11 14 -9 3 -12 2 -9 -5z"/>
<path d="M3516 542 c-3 -4 4 -9 15 -9 23 -2 25 3 4 10 -8 4 -16 3 -19 -1z"/>
<path d="M3576 541 c-3 -5 2 -15 12 -22 15 -12 16 -12 5 2 -7 9 -10 19 -6 22
3 4 4 7 0 7 -3 0 -8 -4 -11 -9z"/>
<path d="M3670 525 c-7 -9 -10 -18 -6 -22 3 -3 6 -1 6 6 0 7 4 10 9 6 5 -3 12
-1 15 4 11 17 -11 21 -24 6z"/>
<path d="M3610 522 c0 -4 10 -9 22 -9 18 -2 20 0 8 7 -18 12 -30 13 -30 2z"/>
<path d="M6479 508 c-5 -18 -6 -38 -1 -34 7 8 12 36 6 36 -2 0 -4 -1 -5 -2z"/>
<path d="M6511 493 c7 -12 15 -20 18 -17 3 2 -3 12 -13 22 -17 16 -18 16 -5
-5z"/>
<path d="M3850 485 c0 -7 7 -15 14 -18 11 -4 13 -1 9 11 -6 15 -5 15 10 3 9
-7 14 -17 11 -22 -3 -5 0 -9 5 -9 6 0 11 5 11 11 0 6 6 9 13 6 6 -2 11 -13 10
-23 -1 -10 0 -13 3 -6 3 6 10 12 15 12 6 0 7 -4 4 -10 -3 -6 1 -7 10 -4 13 5
8 12 -19 30 -19 13 -39 24 -43 23 -4 -1 -10 0 -13 1 -22 8 -40 6 -40 -5z"/>
<path d="M6311 472 c-7 -14 -6 -19 4 -19 7 0 11 7 7 15 -4 11 -1 13 8 7 9 -5
11 -4 6 3 -10 16 -14 15 -25 -6z"/>
<path d="M6400 480 c-12 -7 -10 -9 8 -7 12 0 22 5 22 9 0 11 -12 10 -30 -2z"/>
<path d="M6038 440 c-29 -26 -35 -45 -19 -54 5 -4 7 4 3 16 -4 16 -2 19 8 13
9 -5 11 -4 6 3 -4 7 -3 12 2 12 16 0 22 -13 12 -25 -7 -8 -5 -12 4 -12 14 0
16 21 3 34 -5 4 2 15 14 23 12 10 15 16 8 16 -8 0 -26 -12 -41 -26z"/>
<path d="M6230 465 c0 -5 5 -17 10 -25 5 -8 10 -10 10 -5 0 6 -5 17 -10 25 -5
8 -10 11 -10 5z"/>
<path d="M6270 460 c0 -5 5 -10 11 -10 5 0 7 5 4 10 -3 6 -8 10 -11 10 -2 0
-4 -4 -4 -10z"/>
<path d="M3776 447 c3 -10 9 -15 12 -12 3 3 0 11 -7 18 -10 9 -11 8 -5 -6z"/>
<path d="M4180 425 c-9 -11 -9 -15 -1 -15 7 0 9 -4 6 -10 -3 -5 -1 -10 5 -10
7 0 10 6 7 14 -3 8 -1 16 6 19 8 2 8 5 0 10 -6 4 -16 0 -23 -8z"/>
<path d="M6076 427 c3 -10 9 -15 12 -12 3 3 0 11 -7 18 -10 9 -11 8 -5 -6z"/>
<path d="M6191 431 c-10 -7 -7 -9 12 -8 14 1 23 5 20 10 -6 9 -15 9 -32 -2z"/>
<path d="M3830 419 c0 -5 5 -7 10 -4 6 3 10 8 10 11 0 2 -4 4 -10 4 -5 0 -10
-5 -10 -11z"/>
<path d="M4014 406 c1 -8 5 -18 8 -22 4 -3 5 1 4 10 -1 8 -5 18 -8 22 -4 3 -5
-1 -4 -10z"/>
<path d="M4041 414 c-1 -5 6 -19 14 -30 15 -19 15 -19 8 1 -6 18 -5 19 13 5
18 -14 18 -14 5 2 -7 10 -17 16 -21 13 -5 -3 -11 1 -13 7 -3 7 -6 8 -6 2z"/>
<path d="M5946 404 c-4 -9 -4 -19 -1 -22 3 -3 5 0 5 7 0 7 4 9 10 6 6 -3 7 1
4 9 -8 20 -10 20 -18 0z"/>
<path d="M4111 388 c-13 -21 -13 -22 2 -10 9 8 22 10 29 6 10 -6 9 -3 -1 9
-17 21 -13 21 -30 -5z"/>
<path d="M6096 393 c-6 -14 -5 -15 5 -6 7 7 10 15 7 18 -3 3 -9 -2 -12 -12z"/>
<path d="M6157 395 c-4 -8 -3 -16 1 -19 4 -3 9 4 9 15 2 23 -3 25 -10 4z"/>
<path d="M6193 393 c0 -9 4 -10 14 -2 7 6 13 12 13 14 0 1 -6 2 -13 2 -8 0
-14 -6 -14 -14z"/>
<path d="M4196 367 c3 -10 9 -15 12 -12 3 3 0 11 -7 18 -10 9 -11 8 -5 -6z"/>
<path d="M4290 371 c0 -7 -4 -10 -9 -7 -11 7 -9 -21 2 -29 4 -3 5 -2 2 2 -3 3
0 12 7 20 6 7 8 16 4 20 -3 3 -6 1 -6 -6z"/>
<path d="M5978 368 c5 -5 16 -8 23 -6 8 3 3 7 -10 11 -17 4 -21 3 -13 -5z"/>
<path d="M4146 358 c3 -5 10 -6 15 -3 13 9 11 12 -6 12 -8 0 -12 -4 -9 -9z"/>
<path d="M5937 355 c-4 -8 -3 -16 1 -19 4 -3 9 4 9 15 2 23 -3 25 -10 4z"/>
<path d="M4950 345 c9 -10 7 -16 -7 -24 -10 -6 -13 -10 -8 -11 19 0 38 18 31
29 -4 6 -5 11 -1 11 3 0 14 -15 25 -32 11 -18 20 -28 20 -23 0 6 -4 17 -10 25
-5 8 -5 19 0 25 5 6 -4 11 -27 12 -28 2 -32 -1 -23 -12z"/>
<path d="M5070 340 c6 -10 7 -26 4 -34 -3 -9 -1 -16 5 -16 6 0 10 3 10 8 -1 4
-1 16 0 26 1 18 2 18 20 2 18 -17 21 -17 47 1 28 18 28 18 21 -2 -7 -19 -6
-19 7 -2 8 10 17 18 20 18 3 -1 6 2 6 7 0 10 -23 10 -36 0 -7 -5 -18 -7 -25
-6 -8 2 -13 -3 -11 -10 1 -8 -3 -12 -10 -9 -7 2 -12 10 -10 16 1 6 -1 10 -5
10 -5 -1 -10 0 -13 1 -3 1 -13 3 -22 5 -14 3 -16 0 -8 -15z"/>
<path d="M4170 346 c0 -2 7 -7 16 -10 8 -3 12 -2 9 4 -6 10 -25 14 -25 6z"/>
<path d="M4433 335 c0 -8 4 -12 9 -9 5 3 6 10 3 15 -9 13 -12 11 -12 -6z"/>
<path d="M4584 338 c-4 -7 -4 -10 1 -6 4 4 14 0 22 -10 13 -15 13 -15 3 6 -12
25 -16 27 -26 10z"/>
<path d="M5225 329 c-10 -30 -2 -32 12 -3 6 13 7 24 3 24 -5 0 -12 -9 -15 -21z"/>
<path d="M5496 341 c-3 -5 6 -8 20 -8 19 0 22 2 13 8 -18 11 -26 11 -33 0z"/>
<path d="M5600 346 c0 -2 7 -7 16 -10 8 -3 12 -2 9 4 -6 10 -25 14 -25 6z"/>
<path d="M5759 348 c-6 -21 -5 -37 2 -32 5 3 7 9 4 14 -3 4 1 11 7 13 10 4 10
6 1 6 -7 1 -13 0 -14 -1z"/>
<path d="M5800 340 c8 -5 20 -10 25 -10 6 0 3 5 -5 10 -8 5 -19 10 -25 10 -5
0 -3 -5 5 -10z"/>
<path d="M5870 338 c0 -4 4 -8 9 -8 6 0 12 4 15 8 3 5 -1 9 -9 9 -8 0 -15 -4
-15 -9z"/>
<path d="M5407 320 c-15 -14 -16 -20 -5 -26 7 -4 10 -4 6 1 -4 4 0 14 10 21 9
7 15 14 12 17 -3 2 -13 -4 -23 -13z"/>
<path d="M4846 322 c-3 -5 1 -9 9 -9 8 0 15 4 15 9 0 4 -4 8 -9 8 -6 0 -12 -4
-15 -8z"/>
<path d="M5310 318 c0 -3 9 -6 20 -5 11 1 20 5 20 9 0 3 -9 6 -20 5 -11 -1
-20 -5 -20 -9z"/>
<path d="M5370 319 c0 -5 5 -7 10 -4 6 3 10 8 10 11 0 2 -4 4 -10 4 -5 0 -10
-5 -10 -11z"/>
<path d="M5455 319 c-4 -6 -4 -13 -1 -16 3 -4 6 -1 6 6 0 7 5 9 10 6 6 -3 10
-1 10 4 0 14 -17 14 -25 0z"/>
<path d="M5590 326 c0 -2 7 -7 16 -10 8 -3 12 -2 9 4 -6 10 -25 14 -25 6z"/>
<path d="M4710 310 c-13 -8 -12 -10 3 -10 9 0 17 5 17 10 0 12 -1 12 -20 0z"/>
<path d="M5495 309 c-4 -6 -5 -12 -2 -15 2 -3 7 2 10 11 7 17 1 20 -8 4z"/>
<path d="M4676 301 c-3 -5 2 -15 12 -22 15 -12 16 -12 5 2 -7 9 -10 19 -6 22
3 4 4 7 0 7 -3 0 -8 -4 -11 -9z"/>
<path d="M4819 308 c-7 -23 -4 -35 7 -35 9 0 11 4 4 12 -5 7 -7 15 -3 18 3 4
3 7 0 7 -4 0 -7 -1 -8 -2z"/>
<path d="M4973 303 c4 -3 -1 -12 -11 -20 -15 -13 -15 -13 6 -3 19 9 23 30 5
30 -4 0 -3 -3 0 -7z"/>
<path d="M5193 295 c0 -8 4 -12 9 -9 4 3 8 9 8 15 0 5 -4 9 -8 9 -5 0 -9 -7
-9 -15z"/>
<path d="M5520 300 c-9 -6 -10 -10 -3 -10 6 0 15 5 18 10 8 12 4 12 -15 0z"/>
<path d="M4616 287 c3 -10 9 -15 12 -12 3 3 0 11 -7 18 -10 9 -11 8 -5 -6z"/>
<path d="M4913 280 c5 -29 13 -33 13 -5 0 14 -4 25 -8 25 -4 0 -7 -9 -5 -20z"/>
<path d="M5172 276 c1 -14 5 -23 9 -20 7 4 0 44 -7 44 -2 0 -3 -11 -2 -24z"/>
<path d="M5350 290 c0 -5 5 -10 11 -10 5 0 7 5 4 10 -3 6 -8 10 -11 10 -2 0
-4 -4 -4 -10z"/>
<path d="M4570 281 c0 -6 4 -13 10 -16 6 -3 7 1 4 9 -7 18 -14 21 -14 7z"/>
<path d="M5220 286 c0 -2 8 -10 18 -17 15 -13 16 -12 3 4 -13 16 -21 21 -21
13z"/>
<path d="M5275 279 c-3 -4 2 -6 10 -5 21 3 28 13 10 13 -9 0 -18 -4 -20 -8z"/>
<path d="M4756 267 c3 -10 9 -15 12 -12 3 3 0 11 -7 18 -10 9 -11 8 -5 -6z"/>
<path d="M5133 265 c0 -8 4 -12 9 -9 5 3 6 10 3 15 -9 13 -12 11 -12 -6z"/>
<path d="M4876 262 c-3 -5 1 -9 9 -9 8 0 12 4 9 9 -3 4 -7 8 -9 8 -2 0 -6 -4
-9 -8z"/>
</g>
</svg>
